# MagicaVoxel @ Ephtracy

# group
o 

# material
mtllib 1B_block.mtl
usemtl palette

# normals
vn -1 0 0
vn 1 0 0
vn 0 0 1
vn 0 0 -1
vn 0 -1 0
vn 0 1 0

# texcoords
vt 0.373047 0.5
vt 0.537109 0.5
vt 0.744141 0.5
vt 0.748047 0.5

# verts
v -0.5 0 0.5
v -0.5 0 -0.5
v -0.5 0.1 0.3
v -0.5 0.1 0.2
v -0.5 0.2 0.3
v -0.5 0.2 0.2
v -0.5 0.3 -0.3
v -0.5 0.3 -0.4
v -0.5 0.4 0.2
v -0.5 0.4 0.1
v -0.5 0.4 -0.3
v -0.5 0.4 -0.4
v -0.5 0.5 0.2
v -0.5 0.5 0.1
v -0.5 0.6 0.5
v -0.5 0.6 0.4
v -0.5 0.6 0.2
v -0.5 0.6 0.1
v -0.5 0.6 -0.1
v -0.5 0.6 -0.2
v -0.5 0.6 -0.4
v -0.5 0.6 -0.5
v -0.5 0.7 0.4
v -0.5 0.7 0.3
v -0.5 0.7 0.1
v -0.5 0.7 0
v -0.5 0.7 -0.2
v -0.5 0.7 -0.3
v -0.5 0.8 0.3
v -0.5 0.8 0.2
v -0.5 0.8 0
v -0.5 0.8 -0.1
v -0.5 0.8 -0.3
v -0.5 0.8 -0.4
v -0.5 1 0.5
v -0.5 1 -0.5
v 0.5 0 0.5
v 0.5 0 -0.5
v 0.5 0.1 -0.2
v 0.5 0.1 -0.3
v 0.5 0.2 -0.2
v 0.5 0.2 -0.3
v 0.5 0.3 0.4
v 0.5 0.3 0.3
v 0.5 0.4 0.4
v 0.5 0.4 0.3
v 0.5 0.4 -0.1
v 0.5 0.4 -0.2
v 0.5 0.5 -0.1
v 0.5 0.5 -0.2
v 0.5 0.6 0.5
v 0.5 0.6 0.4
v 0.5 0.6 0.2
v 0.5 0.6 0.1
v 0.5 0.6 -0.1
v 0.5 0.6 -0.2
v 0.5 0.6 -0.4
v 0.5 0.6 -0.5
v 0.5 0.7 0.3
v 0.5 0.7 0.2
v 0.5 0.7 0
v 0.5 0.7 -0.1
v 0.5 0.7 -0.3
v 0.5 0.7 -0.4
v 0.5 0.8 0.4
v 0.5 0.8 0.3
v 0.5 0.8 0.1
v 0.5 0.8 0
v 0.5 0.8 -0.2
v 0.5 0.8 -0.3
v 0.5 1 0.5
v 0.5 1 -0.5
v -0.5 0 0.5
v -0.5 0.6 0.5
v -0.5 1 0.5
v -0.4 0.3 0.5
v -0.4 0.4 0.5
v -0.4 0.6 0.5
v -0.4 0.8 0.5
v -0.3 0.3 0.5
v -0.3 0.4 0.5
v -0.3 0.7 0.5
v -0.3 0.8 0.5
v -0.2 0.6 0.5
v -0.2 0.7 0.5
v -0.1 0.6 0.5
v -0.1 0.8 0.5
v 0 0.7 0.5
v 0 0.8 0.5
v 0.1 0.4 0.5
v 0.1 0.5 0.5
v 0.1 0.6 0.5
v 0.1 0.7 0.5
v 0.2 0.1 0.5
v 0.2 0.2 0.5
v 0.2 0.4 0.5
v 0.2 0.5 0.5
v 0.2 0.6 0.5
v 0.2 0.8 0.5
v 0.3 0.1 0.5
v 0.3 0.2 0.5
v 0.3 0.7 0.5
v 0.3 0.8 0.5
v 0.4 0.6 0.5
v 0.4 0.7 0.5
v 0.5 0 0.5
v 0.5 0.6 0.5
v 0.5 1 0.5
v -0.5 0 -0.5
v -0.5 0.6 -0.5
v -0.5 1 -0.5
v -0.4 0.6 -0.5
v -0.4 0.7 -0.5
v -0.3 0.1 -0.5
v -0.3 0.2 -0.5
v -0.3 0.7 -0.5
v -0.3 0.8 -0.5
v -0.2 0.1 -0.5
v -0.2 0.2 -0.5
v -0.2 0.4 -0.5
v -0.2 0.5 -0.5
v -0.2 0.6 -0.5
v -0.2 0.8 -0.5
v -0.1 0.4 -0.5
v -0.1 0.5 -0.5
v -0.1 0.6 -0.5
v -0.1 0.7 -0.5
v 0 0.7 -0.5
v 0 0.8 -0.5
v 0.1 0.6 -0.5
v 0.1 0.8 -0.5
v 0.2 0.6 -0.5
v 0.2 0.7 -0.5
v 0.3 0.3 -0.5
v 0.3 0.4 -0.5
v 0.3 0.7 -0.5
v 0.3 0.8 -0.5
v 0.4 0.3 -0.5
v 0.4 0.4 -0.5
v 0.4 0.6 -0.5
v 0.4 0.8 -0.5
v 0.5 0 -0.5
v 0.5 0.6 -0.5
v 0.5 1 -0.5
v -0.5 0 0.5
v 0.5 0 0.5
v -0.5 0 -0.5
v 0.5 0 -0.5
v -0.5 1 0.5
v 0.5 1 0.5
v -0.4 1 0.4
v -0.2 1 0.4
v 0.2 1 0.4
v 0.4 1 0.4
v 0.2 1 0.3
v 0.4 1 0.3
v -0.4 1 0.2
v -0.2 1 0.2
v -0.1 1 0.2
v 0.1 1 0.2
v -0.1 1 0.1
v 0.1 1 0.1
v -0.2 1 0
v 0 1 0
v -0.2 1 -0.2
v 0 1 -0.2
v 0.2 1 -0.2
v 0.4 1 -0.2
v -0.4 1 -0.3
v -0.2 1 -0.3
v -0.4 1 -0.4
v -0.2 1 -0.4
v 0.2 1 -0.4
v 0.4 1 -0.4
v -0.5 1 -0.5
v 0.5 1 -0.5

# faces
f 3/2/1 2/2/1 1/2/1
f 4/2/1 2/2/1 3/2/1
f 5/2/1 3/2/1 1/2/1
f 5/1/1 4/1/1 3/1/1
f 6/2/1 2/2/1 4/2/1
f 6/1/1 4/1/1 5/1/1
f 7/2/1 6/2/1 5/2/1
f 7/2/1 2/2/1 6/2/1
f 8/2/1 2/2/1 7/2/1
f 9/2/1 7/2/1 5/2/1
f 10/2/1 7/2/1 9/2/1
f 11/1/1 8/1/1 7/1/1
f 11/2/1 7/2/1 10/2/1
f 12/2/1 2/2/1 8/2/1
f 12/1/1 8/1/1 11/1/1
f 13/1/1 10/1/1 9/1/1
f 13/2/1 9/2/1 5/2/1
f 14/2/1 11/2/1 10/2/1
f 14/1/1 10/1/1 13/1/1
f 14/2/1 12/2/1 11/2/1
f 15/2/1 5/2/1 1/2/1
f 15/2/1 13/2/1 5/2/1
f 15/2/1 14/2/1 13/2/1
f 16/2/1 14/2/1 15/2/1
f 17/2/1 14/2/1 16/2/1
f 18/2/1 12/2/1 14/2/1
f 18/2/1 14/2/1 17/2/1
f 19/2/1 12/2/1 18/2/1
f 20/2/1 12/2/1 19/2/1
f 21/2/1 2/2/1 12/2/1
f 21/2/1 12/2/1 20/2/1
f 22/2/1 2/2/1 21/2/1
f 23/2/1 17/2/1 16/2/1
f 23/4/1 16/4/1 15/4/1
f 24/2/1 17/2/1 23/2/1
f 25/4/1 18/4/1 17/4/1
f 25/2/1 19/2/1 18/2/1
f 26/2/1 19/2/1 25/2/1
f 27/4/1 20/4/1 19/4/1
f 27/2/1 21/2/1 20/2/1
f 28/2/1 21/2/1 27/2/1
f 29/2/1 17/2/1 24/2/1
f 29/4/1 24/4/1 23/4/1
f 30/4/1 26/4/1 25/4/1
f 30/2/1 17/2/1 29/2/1
f 30/4/1 25/4/1 17/4/1
f 31/2/1 19/2/1 26/2/1
f 31/4/1 26/4/1 30/4/1
f 32/4/1 28/4/1 27/4/1
f 32/2/1 19/2/1 31/2/1
f 32/4/1 27/4/1 19/4/1
f 33/2/1 21/2/1 28/2/1
f 33/4/1 28/4/1 32/4/1
f 34/4/1 22/4/1 21/4/1
f 34/2/1 21/2/1 33/2/1
f 35/4/1 30/4/1 29/4/1
f 35/4/1 33/4/1 32/4/1
f 35/4/1 34/4/1 33/4/1
f 35/4/1 23/4/1 15/4/1
f 35/4/1 29/4/1 23/4/1
f 35/4/1 31/4/1 30/4/1
f 35/4/1 32/4/1 31/4/1
f 36/4/1 22/4/1 34/4/1
f 36/4/1 34/4/1 35/4/1
f 37/2/2 38/2/2 39/2/2
f 39/2/2 38/2/2 40/2/2
f 37/2/2 39/2/2 41/2/2
f 39/1/2 40/1/2 41/1/2
f 40/2/2 38/2/2 42/2/2
f 41/1/2 40/1/2 42/1/2
f 37/2/2 41/2/2 43/2/2
f 41/2/2 42/2/2 43/2/2
f 43/2/2 42/2/2 44/2/2
f 37/2/2 43/2/2 45/2/2
f 43/1/2 44/1/2 45/1/2
f 44/2/2 42/2/2 46/2/2
f 45/1/2 44/1/2 46/1/2
f 46/2/2 42/2/2 47/2/2
f 47/2/2 42/2/2 48/2/2
f 45/2/2 46/2/2 49/2/2
f 46/2/2 47/2/2 49/2/2
f 47/1/2 48/1/2 49/1/2
f 48/2/2 42/2/2 50/2/2
f 49/1/2 48/1/2 50/1/2
f 37/2/2 45/2/2 51/2/2
f 45/2/2 49/2/2 51/2/2
f 49/2/2 50/2/2 51/2/2
f 51/2/2 50/2/2 52/2/2
f 52/2/2 50/2/2 53/2/2
f 53/2/2 50/2/2 54/2/2
f 54/2/2 50/2/2 55/2/2
f 50/2/2 42/2/2 56/2/2
f 55/2/2 50/2/2 56/2/2
f 42/2/2 38/2/2 57/2/2
f 56/2/2 42/2/2 57/2/2
f 57/2/2 38/2/2 58/2/2
f 52/2/2 53/2/2 59/2/2
f 53/4/2 54/4/2 60/4/2
f 59/2/2 53/2/2 60/2/2
f 54/2/2 55/2/2 61/2/2
f 55/4/2 56/4/2 62/4/2
f 61/2/2 55/2/2 62/2/2
f 56/2/2 57/2/2 63/2/2
f 57/4/2 58/4/2 64/4/2
f 63/2/2 57/2/2 64/2/2
f 51/4/2 52/4/2 65/4/2
f 52/2/2 59/2/2 65/2/2
f 59/4/2 60/4/2 66/4/2
f 65/2/2 59/2/2 66/2/2
f 54/2/2 61/2/2 67/2/2
f 66/4/2 60/4/2 67/4/2
f 60/4/2 54/4/2 67/4/2
f 61/4/2 62/4/2 68/4/2
f 67/2/2 61/2/2 68/2/2
f 62/4/2 56/4/2 69/4/2
f 68/4/2 62/4/2 69/4/2
f 56/2/2 63/2/2 69/2/2
f 63/4/2 64/4/2 70/4/2
f 69/2/2 63/2/2 70/2/2
f 65/4/2 66/4/2 71/4/2
f 66/4/2 67/4/2 71/4/2
f 69/4/2 70/4/2 71/4/2
f 51/4/2 65/4/2 71/4/2
f 67/4/2 68/4/2 71/4/2
f 68/4/2 69/4/2 71/4/2
f 70/4/2 64/4/2 72/4/2
f 71/4/2 70/4/2 72/4/2
f 64/4/2 58/4/2 72/4/2
f 76/2/3 74/2/3 73/2/3
f 77/2/3 74/2/3 76/2/3
f 78/4/3 75/4/3 74/4/3
f 78/2/3 74/2/3 77/2/3
f 79/4/3 75/4/3 78/4/3
f 80/1/3 77/1/3 76/1/3
f 80/2/3 76/2/3 73/2/3
f 81/2/3 79/2/3 78/2/3
f 81/1/3 77/1/3 80/1/3
f 81/2/3 78/2/3 77/2/3
f 82/2/3 79/2/3 81/2/3
f 83/4/3 75/4/3 79/4/3
f 83/2/3 79/2/3 82/2/3
f 84/2/3 82/2/3 81/2/3
f 84/2/3 81/2/3 80/2/3
f 85/4/3 83/4/3 82/4/3
f 85/2/3 82/2/3 84/2/3
f 86/2/3 84/2/3 80/2/3
f 86/4/3 85/4/3 84/4/3
f 87/4/3 75/4/3 83/4/3
f 87/4/3 85/4/3 86/4/3
f 87/4/3 83/4/3 85/4/3
f 88/2/3 87/2/3 86/2/3
f 89/4/3 75/4/3 87/4/3
f 89/2/3 87/2/3 88/2/3
f 90/2/3 86/2/3 80/2/3
f 90/2/3 88/2/3 86/2/3
f 91/2/3 88/2/3 90/2/3
f 92/2/3 88/2/3 91/2/3
f 93/4/3 89/4/3 88/4/3
f 93/2/3 88/2/3 92/2/3
f 94/2/3 80/2/3 73/2/3
f 94/2/3 90/2/3 80/2/3
f 95/2/3 90/2/3 94/2/3
f 96/1/3 91/1/3 90/1/3
f 96/2/3 90/2/3 95/2/3
f 97/2/3 92/2/3 91/2/3
f 97/1/3 91/1/3 96/1/3
f 98/4/3 93/4/3 92/4/3
f 98/2/3 92/2/3 97/2/3
f 99/4/3 75/4/3 89/4/3
f 99/4/3 93/4/3 98/4/3
f 99/4/3 89/4/3 93/4/3
f 100/2/3 94/2/3 73/2/3
f 100/1/3 95/1/3 94/1/3
f 101/2/3 98/2/3 97/2/3
f 101/1/3 95/1/3 100/1/3
f 101/2/3 96/2/3 95/2/3
f 101/2/3 99/2/3 98/2/3
f 101/2/3 97/2/3 96/2/3
f 102/2/3 99/2/3 101/2/3
f 103/4/3 75/4/3 99/4/3
f 103/2/3 99/2/3 102/2/3
f 104/2/3 102/2/3 101/2/3
f 104/2/3 101/2/3 100/2/3
f 105/4/3 103/4/3 102/4/3
f 105/2/3 102/2/3 104/2/3
f 106/2/3 100/2/3 73/2/3
f 106/2/3 104/2/3 100/2/3
f 107/4/3 105/4/3 104/4/3
f 107/2/3 104/2/3 106/2/3
f 108/4/3 103/4/3 105/4/3
f 108/4/3 105/4/3 107/4/3
f 108/4/3 75/4/3 103/4/3
f 109/2/4 110/2/4 112/2/4
f 110/4/4 111/4/4 112/4/4
f 112/4/4 111/4/4 113/4/4
f 109/2/4 112/2/4 114/2/4
f 112/2/4 113/2/4 114/2/4
f 114/2/4 113/2/4 115/2/4
f 113/4/4 111/4/4 116/4/4
f 115/2/4 113/2/4 116/2/4
f 116/4/4 111/4/4 117/4/4
f 114/1/4 115/1/4 118/1/4
f 109/2/4 114/2/4 118/2/4
f 116/2/4 117/2/4 119/2/4
f 118/1/4 115/1/4 119/1/4
f 115/2/4 116/2/4 119/2/4
f 119/2/4 117/2/4 120/2/4
f 120/2/4 117/2/4 121/2/4
f 121/2/4 117/2/4 122/2/4
f 117/4/4 111/4/4 123/4/4
f 122/2/4 117/2/4 123/2/4
f 118/2/4 119/2/4 124/2/4
f 119/2/4 120/2/4 124/2/4
f 120/1/4 121/1/4 124/1/4
f 121/2/4 122/2/4 125/2/4
f 124/1/4 121/1/4 125/1/4
f 122/4/4 123/4/4 126/4/4
f 125/2/4 122/2/4 126/2/4
f 126/4/4 123/4/4 127/4/4
f 124/2/4 125/2/4 128/2/4
f 127/4/4 123/4/4 128/4/4
f 126/2/4 127/2/4 128/2/4
f 125/2/4 126/2/4 128/2/4
f 123/4/4 111/4/4 129/4/4
f 128/4/4 123/4/4 129/4/4
f 124/2/4 128/2/4 130/2/4
f 128/2/4 129/2/4 130/2/4
f 129/4/4 111/4/4 131/4/4
f 130/2/4 129/2/4 131/2/4
f 124/2/4 130/2/4 132/2/4
f 130/4/4 131/4/4 132/4/4
f 132/4/4 131/4/4 133/4/4
f 118/2/4 124/2/4 134/2/4
f 124/2/4 132/2/4 134/2/4
f 132/2/4 133/2/4 134/2/4
f 134/2/4 133/2/4 135/2/4
f 133/4/4 131/4/4 136/4/4
f 135/2/4 133/2/4 136/2/4
f 131/4/4 111/4/4 137/4/4
f 136/4/4 131/4/4 137/4/4
f 134/1/4 135/1/4 138/1/4
f 118/2/4 134/2/4 138/2/4
f 135/2/4 136/2/4 139/2/4
f 138/1/4 135/1/4 139/1/4
f 136/2/4 137/2/4 139/2/4
f 139/2/4 137/2/4 140/2/4
f 137/4/4 111/4/4 141/4/4
f 140/2/4 137/2/4 141/2/4
f 139/2/4 140/2/4 142/2/4
f 109/2/4 118/2/4 142/2/4
f 118/2/4 138/2/4 142/2/4
f 138/2/4 139/2/4 142/2/4
f 140/4/4 141/4/4 143/4/4
f 142/2/4 140/2/4 143/2/4
f 141/4/4 111/4/4 144/4/4
f 143/4/4 141/4/4 144/4/4
f 147/2/5 146/2/5 145/2/5
f 148/2/5 146/2/5 147/2/5
f 149/4/6 150/4/6 151/4/6
f 151/4/6 150/4/6 152/4/6
f 152/4/6 150/4/6 153/4/6
f 153/4/6 150/4/6 154/4/6
f 152/4/6 153/4/6 155/4/6
f 153/3/6 154/3/6 155/3/6
f 154/4/6 150/4/6 156/4/6
f 155/3/6 154/3/6 156/3/6
f 149/4/6 151/4/6 157/4/6
f 151/3/6 152/3/6 157/3/6
f 155/4/6 156/4/6 158/4/6
f 157/3/6 152/3/6 158/3/6
f 152/4/6 155/4/6 158/4/6
f 158/4/6 156/4/6 159/4/6
f 159/4/6 156/4/6 160/4/6
f 157/4/6 158/4/6 161/4/6
f 158/4/6 159/4/6 161/4/6
f 159/3/6 160/3/6 161/3/6
f 160/4/6 156/4/6 162/4/6
f 161/3/6 160/3/6 162/3/6
f 157/4/6 161/4/6 163/4/6
f 161/4/6 162/4/6 163/4/6
f 163/4/6 162/4/6 164/4/6
f 157/4/6 163/4/6 165/4/6
f 163/3/6 164/3/6 165/3/6
f 164/4/6 162/4/6 166/4/6
f 165/3/6 164/3/6 166/3/6
f 162/4/6 156/4/6 167/4/6
f 166/4/6 162/4/6 167/4/6
f 156/4/6 150/4/6 168/4/6
f 167/4/6 156/4/6 168/4/6
f 166/4/6 167/4/6 169/4/6
f 149/4/6 157/4/6 169/4/6
f 165/4/6 166/4/6 169/4/6
f 157/4/6 165/4/6 169/4/6
f 169/4/6 167/4/6 170/4/6
f 149/4/6 169/4/6 171/4/6
f 169/3/6 170/3/6 171/3/6
f 170/4/6 167/4/6 172/4/6
f 171/3/6 170/3/6 172/3/6
f 167/3/6 168/3/6 173/3/6
f 172/4/6 167/4/6 173/4/6
f 168/4/6 150/4/6 174/4/6
f 173/3/6 168/3/6 174/3/6
f 172/4/6 173/4/6 175/4/6
f 171/4/6 172/4/6 175/4/6
f 173/4/6 174/4/6 175/4/6
f 149/4/6 171/4/6 175/4/6
f 174/4/6 150/4/6 176/4/6
f 175/4/6 174/4/6 176/4/6
