# MagicaVoxel @ Ephtracy

# group
o 

# material
mtllib 1B_chr_knight.mtl
usemtl palette

# normals
vn -1 0 0
vn 1 0 0
vn 0 0 1
vn 0 0 -1
vn 0 -1 0
vn 0 1 0

# texcoords
vt 0.0332031 0.5
vt 0.0605469 0.5
vt 0.0683594 0.5
vt 0.369141 0.5
vt 0.373047 0.5
vt 0.544922 0.5
vt 0.548828 0.5
vt 0.560547 0.5
vt 0.958984 0.5
vt 0.966797 0.5
vt 0.970703 0.5
vt 0.974609 0.5
vt 0.978516 0.5
vt 0.994141 0.5

# verts
v -0.5 0.2 0.1
v -0.5 0.2 -0.2
v -0.5 0.3 0.3
v -0.5 0.3 0.1
v -0.5 0.3 0
v -0.5 0.3 -0.1
v -0.5 0.3 -0.2
v -0.5 0.3 -0.4
v -0.5 0.4 0.5
v -0.5 0.4 0.3
v -0.5 0.4 0.1
v -0.5 0.4 0
v -0.5 0.4 -0.1
v -0.5 0.4 -0.2
v -0.5 0.4 -0.4
v -0.5 0.4 -0.6
v -0.5 0.5 0.6
v -0.5 0.5 0.5
v -0.5 0.5 0.3
v -0.5 0.5 -0.4
v -0.5 0.5 -0.6
v -0.5 0.5 -0.7
v -0.5 0.6 0.5
v -0.5 0.6 -0.6
v -0.5 0.7 0.6
v -0.5 0.7 0.5
v -0.5 0.7 -0.6
v -0.5 0.7 -0.7
v -0.4 0.4 0
v -0.4 0.4 -0.1
v -0.4 0.5 0
v -0.4 0.5 -0.1
v -0.4 0.8 0.1
v -0.4 0.8 -0.2
v -0.4 0.9 0.2
v -0.4 0.9 0.1
v -0.4 0.9 0
v -0.4 0.9 -0.1
v -0.4 0.9 -0.2
v -0.4 0.9 -0.3
v -0.4 1 0.1
v -0.4 1 0
v -0.4 1 -0.1
v -0.4 1 -0.2
v -0.4 1.1 0.1
v -0.4 1.1 0
v -0.4 1.1 -0.1
v -0.4 1.1 -0.2
v -0.4 1.2 0.2
v -0.4 1.2 0.1
v -0.4 1.2 0
v -0.4 1.2 -0.1
v -0.4 1.2 -0.2
v -0.4 1.2 -0.3
v -0.4 1.3 0.1
v -0.4 1.3 -0.2
v -0.3 0.3 0.2
v -0.3 0.3 0.1
v -0.3 0.3 0
v -0.3 0.3 -0.1
v -0.3 0.3 -0.2
v -0.3 0.3 -0.3
v -0.3 0.4 0.2
v -0.3 0.4 0.1
v -0.3 0.4 0
v -0.3 0.4 -0.1
v -0.3 0.4 -0.2
v -0.3 0.4 -0.3
v -0.3 0.5 0.1
v -0.3 0.5 0
v -0.3 0.5 -0.1
v -0.3 0.6 0
v -0.3 0.6 -0.1
v -0.3 0.6 -0.2
v -0.3 0.7 0.2
v -0.3 0.7 0.1
v -0.3 0.7 0
v -0.3 0.7 -0.1
v -0.3 0.7 -0.2
v -0.3 0.7 -0.3
v -0.3 0.8 0.1
v -0.3 0.8 0
v -0.3 0.8 -0.2
v -0.3 0.8 -0.3
v -0.3 0.9 0.2
v -0.3 0.9 0.1
v -0.3 0.9 0
v -0.3 0.9 -0.1
v -0.3 0.9 -0.2
v -0.3 0.9 -0.3
v -0.3 0.9 -0.4
v -0.3 1 0.3
v -0.3 1 0.2
v -0.3 1 0.1
v -0.3 1 0
v -0.3 1 -0.1
v -0.3 1 -0.2
v -0.3 1.1 0.1
v -0.3 1.1 0
v -0.3 1.1 -0.1
v -0.3 1.1 -0.2
v -0.3 1.2 0.3
v -0.3 1.2 0.2
v -0.3 1.2 0.1
v -0.3 1.2 0
v -0.3 1.2 -0.1
v -0.3 1.2 -0.2
v -0.3 1.2 -0.3
v -0.3 1.2 -0.4
v -0.3 1.3 0.2
v -0.3 1.3 0.1
v -0.3 1.3 -0.2
v -0.3 1.3 -0.3
v -0.2 0 0
v -0.2 0 -0.1
v -0.2 0.2 0
v -0.2 0.2 -0.1
v -0.2 0.3 0
v -0.2 0.3 -0.1
v -0.2 0.4 0.1
v -0.2 0.4 0
v -0.2 0.4 -0.1
v -0.2 0.4 -0.2
v -0.2 0.5 0.1
v -0.2 0.5 0
v -0.2 0.5 -0.1
v -0.2 0.6 0.2
v -0.2 0.6 0.1
v -0.2 0.6 -0.1
v -0.2 0.6 -0.2
v -0.2 0.6 -0.3
v -0.2 0.7 0.2
v -0.2 0.7 0.1
v -0.2 0.7 0
v -0.2 0.7 -0.2
v -0.2 0.7 -0.3
v -0.2 0.7 -0.4
v -0.2 0.8 0.1
v -0.2 0.8 0
v -0.2 0.8 -0.3
v -0.2 0.8 -0.4
v -0.2 0.8 -0.5
v -0.2 0.9 -0.3
v -0.2 0.9 -0.4
v -0.2 1.1 -0.4
v -0.2 1.1 -0.5
v -0.2 1.3 0.1
v -0.2 1.3 -0.2
v -0.2 1.4 0.1
v -0.2 1.4 -0.2
v -0.1 0.6 -0.3
v -0.1 0.6 -0.4
v -0.1 0.7 -0.3
v -0.1 0.7 -0.4
v -0.1 0.9 0.2
v -0.1 0.9 0.1
v -0.1 1 0.2
v -0.1 1 0.1
v 0.1 0 0
v 0.1 0 -0.1
v 0.1 0.2 0
v 0.1 0.2 -0.1
v 0.1 0.3 0
v 0.1 0.3 -0.1
v 0.1 0.5 -0.2
v 0.1 0.5 -0.3
v 0.1 0.5 -0.4
v 0.1 0.6 0.2
v 0.1 0.6 0.1
v 0.1 0.6 -0.2
v 0.1 0.6 -0.3
v 0.1 0.6 -0.4
v 0.1 0.7 0.2
v 0.1 0.7 0.1
v 0.1 0.7 -0.3
v 0.1 0.7 -0.4
v 0.1 0.8 -0.3
v 0.1 0.8 -0.4
v 0.1 0.8 -0.5
v 0.1 0.9 -0.3
v 0.1 0.9 -0.5
v 0.2 0.4 -0.3
v 0.2 0.4 -0.4
v 0.2 0.5 -0.3
v 0.2 0.5 -0.4
v 0.2 0.6 -0.3
v 0.2 0.6 -0.4
v 0.2 0.7 0.2
v 0.2 0.7 0.1
v 0.2 0.7 -0.3
v 0.2 0.7 -0.4
v 0.2 0.8 0.1
v 0.2 0.9 0.1
v 0.2 1 0.2
v 0.2 1 0.1
v 0.3 0.3 -0.3
v 0.3 0.3 -0.4
v 0.3 0.4 -0.3
v 0.3 0.4 -0.4
v 0.3 0.5 0
v 0.3 0.5 -0.1
v 0.3 0.5 -0.3
v 0.3 0.5 -0.4
v 0.3 0.6 0
v 0.3 0.6 -0.1
v 0.3 0.6 -0.3
v 0.3 0.6 -0.4
v 0.4 0.4 0
v 0.4 0.4 -0.1
v 0.4 0.4 -0.3
v 0.4 0.4 -0.4
v 0.4 0.5 0
v 0.4 0.5 -0.1
v 0.4 0.5 -0.3
v 0.4 0.5 -0.4
v 0.4 0.6 -0.2
v 0.4 0.6 -0.3
v 0.4 0.7 -0.2
v 0.4 0.7 -0.3
v 0.5 0.3 -0.3
v 0.5 0.3 -0.4
v 0.5 0.4 -0.3
v 0.5 0.4 -0.4
v 0.6 0.4 -0.2
v 0.6 0.4 -0.3
v 0.6 0.5 -0.2
v 0.6 0.5 -0.3
v 0.6 0.6 0
v 0.6 0.6 -0.1
v 0.6 0.7 0
v 0.6 0.7 -0.1
v 0.7 0.5 -0.1
v 0.7 0.5 -0.2
v 0.7 0.6 -0.1
v 0.7 0.6 -0.2
v -0.4 0.2 0.1
v -0.4 0.2 -0.2
v -0.4 0.3 0.3
v -0.4 0.3 0.1
v -0.4 0.3 0
v -0.4 0.3 -0.1
v -0.4 0.3 -0.2
v -0.4 0.3 -0.4
v -0.4 0.4 0.5
v -0.4 0.4 0.3
v -0.4 0.4 0.1
v -0.4 0.4 0
v -0.4 0.4 -0.1
v -0.4 0.4 -0.2
v -0.4 0.4 -0.4
v -0.4 0.4 -0.6
v -0.4 0.5 0.6
v -0.4 0.5 0.5
v -0.4 0.5 0.3
v -0.4 0.5 -0.4
v -0.4 0.5 -0.6
v -0.4 0.5 -0.7
v -0.4 0.6 0.5
v -0.4 0.6 -0.6
v -0.4 0.7 0.6
v -0.4 0.7 0.5
v -0.4 0.7 -0.6
v -0.4 0.7 -0.7
v -0.3 0.4 0
v -0.3 0.4 -0.1
v -0.3 0.5 0
v -0.3 0.5 -0.1
v -0.2 0.7 0.2
v -0.2 0.7 0.1
v -0.2 0.8 0.1
v -0.2 0.9 0.1
v -0.2 1 0.2
v -0.2 1 0.1
v -0.1 0 0
v -0.1 0 -0.1
v -0.1 0.2 0
v -0.1 0.2 -0.1
v -0.1 0.3 0
v -0.1 0.3 -0.1
v -0.1 0.6 0.2
v -0.1 0.6 0.1
v -0.1 0.7 0.2
v -0.1 0.7 0.1
v -0.1 0.7 -0.3
v -0.1 0.7 -0.4
v -0.1 0.8 -0.3
v -0.1 0.8 -0.4
v -0.1 0.8 -0.5
v -0.1 0.9 -0.3
v -0.1 0.9 -0.5
v 0 0.9 0.2
v 0 0.9 0.1
v 0 1 0.2
v 0 1 0.1
v 0.1 0.6 -0.3
v 0.1 0.6 -0.4
v 0.1 0.7 -0.3
v 0.1 0.7 -0.4
v 0.2 0 0
v 0.2 0 -0.1
v 0.2 0.2 0
v 0.2 0.2 -0.1
v 0.2 0.3 0
v 0.2 0.3 -0.1
v 0.2 0.4 0.1
v 0.2 0.4 0
v 0.2 0.4 -0.1
v 0.2 0.4 -0.2
v 0.2 0.5 0.1
v 0.2 0.5 0
v 0.2 0.5 -0.1
v 0.2 0.5 -0.2
v 0.2 0.5 -0.3
v 0.2 0.5 -0.4
v 0.2 0.6 0.2
v 0.2 0.6 0.1
v 0.2 0.6 0
v 0.2 0.6 -0.1
v 0.2 0.6 -0.3
v 0.2 0.6 -0.4
v 0.2 0.7 0.2
v 0.2 0.7 0.1
v 0.2 0.7 0
v 0.2 0.7 -0.3
v 0.2 0.7 -0.4
v 0.2 0.8 0.1
v 0.2 0.8 0
v 0.2 0.8 -0.3
v 0.2 0.8 -0.4
v 0.2 0.8 -0.5
v 0.2 0.9 -0.3
v 0.2 0.9 -0.4
v 0.2 1.1 -0.4
v 0.2 1.1 -0.5
v 0.2 1.3 0.1
v 0.2 1.3 -0.1
v 0.2 1.3 -0.2
v 0.2 1.4 0.1
v 0.2 1.4 -0.2
v 0.3 0.3 0.2
v 0.3 0.3 0.1
v 0.3 0.3 0
v 0.3 0.3 -0.1
v 0.3 0.3 -0.2
v 0.3 0.3 -0.3
v 0.3 0.4 0.2
v 0.3 0.4 0.1
v 0.3 0.4 0
v 0.3 0.4 -0.1
v 0.3 0.4 -0.2
v 0.3 0.4 -0.3
v 0.3 0.4 -0.4
v 0.3 0.5 0.1
v 0.3 0.5 0
v 0.3 0.5 -0.3
v 0.3 0.5 -0.4
v 0.3 0.6 0
v 0.3 0.6 -0.1
v 0.3 0.6 -0.3
v 0.3 0.6 -0.4
v 0.3 0.7 0.2
v 0.3 0.7 0.1
v 0.3 0.7 0
v 0.3 0.7 -0.1
v 0.3 0.7 -0.2
v 0.3 0.7 -0.3
v 0.3 0.7 -0.4
v 0.3 0.8 0.1
v 0.3 0.8 0
v 0.3 0.8 -0.1
v 0.3 0.8 -0.2
v 0.3 0.8 -0.3
v 0.3 0.9 0.2
v 0.3 0.9 0.1
v 0.3 0.9 0
v 0.3 0.9 -0.1
v 0.3 0.9 -0.2
v 0.3 0.9 -0.3
v 0.3 0.9 -0.4
v 0.3 1 0.3
v 0.3 1 0.2
v 0.3 1 0.1
v 0.3 1 0
v 0.3 1 -0.1
v 0.3 1 -0.2
v 0.3 1.1 0.3
v 0.3 1.1 0.2
v 0.3 1.1 0.1
v 0.3 1.1 0
v 0.3 1.1 -0.1
v 0.3 1.1 -0.2
v 0.3 1.2 0.3
v 0.3 1.2 0.2
v 0.3 1.2 0.1
v 0.3 1.2 0
v 0.3 1.2 -0.1
v 0.3 1.2 -0.2
v 0.3 1.2 -0.3
v 0.3 1.2 -0.4
v 0.3 1.3 0.2
v 0.3 1.3 0.1
v 0.3 1.3 -0.2
v 0.3 1.3 -0.3
v 0.4 0.3 0
v 0.4 0.3 -0.1
v 0.4 0.3 -0.3
v 0.4 0.3 -0.4
v 0.4 0.4 0
v 0.4 0.4 -0.1
v 0.4 0.4 -0.3
v 0.4 0.4 -0.4
v 0.4 0.5 0
v 0.4 0.5 -0.1
v 0.4 0.5 -0.3
v 0.4 0.5 -0.4
v 0.4 0.6 0
v 0.4 0.6 -0.1
v 0.4 0.6 -0.3
v 0.4 0.6 -0.4
v 0.4 0.7 -0.1
v 0.4 0.7 -0.2
v 0.4 0.8 0.1
v 0.4 0.8 -0.1
v 0.4 0.8 -0.2
v 0.4 0.9 0.2
v 0.4 0.9 0.1
v 0.4 0.9 0
v 0.4 0.9 -0.1
v 0.4 0.9 -0.2
v 0.4 0.9 -0.3
v 0.4 1 0.1
v 0.4 1 0
v 0.4 1 -0.1
v 0.4 1 -0.2
v 0.4 1.1 0.1
v 0.4 1.1 0
v 0.4 1.1 -0.1
v 0.4 1.1 -0.2
v 0.4 1.2 0.2
v 0.4 1.2 0.1
v 0.4 1.2 0
v 0.4 1.2 -0.1
v 0.4 1.2 -0.2
v 0.4 1.2 -0.3
v 0.4 1.3 0.1
v 0.4 1.3 -0.2
v 0.5 0.4 0
v 0.5 0.4 -0.1
v 0.5 0.4 -0.3
v 0.5 0.4 -0.4
v 0.5 0.5 0
v 0.5 0.5 -0.1
v 0.5 0.5 -0.3
v 0.5 0.5 -0.4
v 0.5 0.6 -0.2
v 0.5 0.6 -0.3
v 0.5 0.7 -0.2
v 0.5 0.7 -0.3
v 0.6 0.3 -0.3
v 0.6 0.3 -0.4
v 0.6 0.4 -0.3
v 0.6 0.4 -0.4
v 0.7 0.4 -0.2
v 0.7 0.4 -0.3
v 0.7 0.5 -0.2
v 0.7 0.5 -0.3
v 0.7 0.6 0
v 0.7 0.6 -0.1
v 0.7 0.7 0
v 0.7 0.7 -0.1
v 0.8 0.5 -0.1
v 0.8 0.5 -0.2
v 0.8 0.6 -0.1
v 0.8 0.6 -0.2
v -0.5 0.5 0.6
v -0.5 0.7 0.6
v -0.4 0.5 0.6
v -0.4 0.7 0.6
v -0.5 0.4 0.5
v -0.5 0.5 0.5
v -0.4 0.4 0.5
v -0.4 0.5 0.5
v -0.5 0.3 0.3
v -0.5 0.4 0.3
v -0.4 0.3 0.3
v -0.4 0.4 0.3
v -0.3 1 0.3
v -0.3 1.2 0.3
v 0 1 0.3
v 0 1.2 0.3
v 0.2 1.1 0.3
v 0.2 1.2 0.3
v 0.3 1 0.3
v 0.3 1.1 0.3
v 0.3 1.2 0.3
v -0.4 0.9 0.2
v -0.4 1.2 0.2
v -0.3 0.3 0.2
v -0.3 0.4 0.2
v -0.3 0.7 0.2
v -0.3 0.9 0.2
v -0.3 1 0.2
v -0.3 1.2 0.2
v -0.3 1.3 0.2
v -0.2 0.3 0.2
v -0.2 0.4 0.2
v -0.2 0.6 0.2
v -0.2 0.7 0.2
v -0.2 1 0.2
v -0.2 1.2 0.2
v -0.2 1.3 0.2
v -0.1 0.3 0.2
v -0.1 0.4 0.2
v -0.1 0.6 0.2
v -0.1 0.7 0.2
v -0.1 0.9 0.2
v -0.1 1 0.2
v 0 0.3 0.2
v 0 0.4 0.2
v 0 0.9 0.2
v 0 1 0.2
v 0 1.2 0.2
v 0.1 0.3 0.2
v 0.1 0.4 0.2
v 0.1 0.6 0.2
v 0.1 0.7 0.2
v 0.2 0.3 0.2
v 0.2 0.4 0.2
v 0.2 0.6 0.2
v 0.2 0.7 0.2
v 0.2 1 0.2
v 0.2 1.2 0.2
v 0.3 0.3 0.2
v 0.3 0.4 0.2
v 0.3 0.7 0.2
v 0.3 0.9 0.2
v 0.3 1 0.2
v 0.3 1.1 0.2
v 0.3 1.2 0.2
v 0.3 1.3 0.2
v 0.4 0.9 0.2
v 0.4 1.2 0.2
v -0.5 0.2 0.1
v -0.5 0.3 0.1
v -0.4 0.2 0.1
v -0.4 0.3 0.1
v -0.4 0.8 0.1
v -0.4 0.9 0.1
v -0.4 1.2 0.1
v -0.4 1.3 0.1
v -0.3 0.5 0.1
v -0.3 0.7 0.1
v -0.3 0.8 0.1
v -0.3 0.9 0.1
v -0.3 1.2 0.1
v -0.3 1.3 0.1
v -0.2 0.4 0.1
v -0.2 0.5 0.1
v -0.2 0.6 0.1
v -0.2 0.7 0.1
v -0.2 0.8 0.1
v -0.2 0.9 0.1
v -0.2 1 0.1
v -0.2 1.3 0.1
v -0.2 1.4 0.1
v -0.1 0.4 0.1
v -0.1 0.6 0.1
v -0.1 0.7 0.1
v -0.1 0.8 0.1
v -0.1 0.9 0.1
v -0.1 1 0.1
v -0.1 1.3 0.1
v -0.1 1.4 0.1
v 0 0.4 0.1
v 0 0.6 0.1
v 0 0.7 0.1
v 0 0.8 0.1
v 0 0.9 0.1
v 0 1 0.1
v 0.1 0.4 0.1
v 0.1 0.5 0.1
v 0.1 0.6 0.1
v 0.1 0.7 0.1
v 0.1 0.8 0.1
v 0.1 0.9 0.1
v 0.2 0.4 0.1
v 0.2 0.5 0.1
v 0.2 0.6 0.1
v 0.2 0.7 0.1
v 0.2 0.8 0.1
v 0.2 0.9 0.1
v 0.2 1 0.1
v 0.2 1.3 0.1
v 0.2 1.4 0.1
v 0.3 0.5 0.1
v 0.3 0.7 0.1
v 0.3 0.8 0.1
v 0.3 0.9 0.1
v 0.3 1.2 0.1
v 0.3 1.3 0.1
v 0.4 0.8 0.1
v 0.4 0.9 0.1
v 0.4 1.2 0.1
v 0.4 1.3 0.1
v -0.5 0.3 0
v -0.5 0.4 0
v -0.4 0.3 0
v -0.4 0.4 0
v -0.4 0.5 0
v -0.4 0.9 0
v -0.4 1 0
v -0.4 1.1 0
v -0.4 1.2 0
v -0.3 0.4 0
v -0.3 0.5 0
v -0.3 0.7 0
v -0.3 0.8 0
v -0.3 0.9 0
v -0.3 1 0
v -0.3 1.1 0
v -0.3 1.2 0
v -0.2 0 0
v -0.2 0.2 0
v -0.2 0.3 0
v -0.2 0.7 0
v -0.2 0.8 0
v -0.1 0 0
v -0.1 0.2 0
v -0.1 0.3 0
v 0.1 0 0
v 0.1 0.2 0
v 0.1 0.3 0
v 0.2 0 0
v 0.2 0.2 0
v 0.2 0.3 0
v 0.2 0.7 0
v 0.2 0.8 0
v 0.3 0.3 0
v 0.3 0.4 0
v 0.3 0.5 0
v 0.3 0.6 0
v 0.3 0.7 0
v 0.3 0.8 0
v 0.3 0.9 0
v 0.3 1 0
v 0.3 1.1 0
v 0.3 1.2 0
v 0.4 0.3 0
v 0.4 0.4 0
v 0.4 0.5 0
v 0.4 0.6 0
v 0.4 0.9 0
v 0.4 1 0
v 0.4 1.1 0
v 0.4 1.2 0
v 0.5 0.4 0
v 0.5 0.5 0
v 0.6 0.6 0
v 0.6 0.7 0
v 0.7 0.6 0
v 0.7 0.7 0
v -0.4 1 -0.1
v -0.4 1.1 -0.1
v -0.3 1 -0.1
v -0.3 1.1 -0.1
v 0.3 0.7 -0.1
v 0.3 0.8 -0.1
v 0.3 1 -0.1
v 0.3 1.1 -0.1
v 0.4 0.7 -0.1
v 0.4 0.8 -0.1
v 0.4 1 -0.1
v 0.4 1.1 -0.1
v 0.7 0.5 -0.1
v 0.7 0.6 -0.1
v 0.8 0.5 -0.1
v 0.8 0.6 -0.1
v -0.5 0.3 -0.2
v -0.5 0.4 -0.2
v -0.4 0.3 -0.2
v -0.4 0.4 -0.2
v -0.4 0.9 -0.2
v -0.4 1 -0.2
v -0.4 1.1 -0.2
v -0.4 1.2 -0.2
v -0.3 0.9 -0.2
v -0.3 1 -0.2
v -0.3 1.1 -0.2
v -0.3 1.2 -0.2
v 0.3 0.9 -0.2
v 0.3 1 -0.2
v 0.3 1.1 -0.2
v 0.3 1.2 -0.2
v 0.4 0.6 -0.2
v 0.4 0.7 -0.2
v 0.4 0.9 -0.2
v 0.4 1 -0.2
v 0.4 1.1 -0.2
v 0.4 1.2 -0.2
v 0.5 0.6 -0.2
v 0.5 0.7 -0.2
v 0.6 0.4 -0.2
v 0.6 0.5 -0.2
v 0.7 0.4 -0.2
v 0.7 0.5 -0.2
v 0.2 0.4 -0.3
v 0.2 0.5 -0.3
v 0.3 0.3 -0.3
v 0.3 0.4 -0.3
v 0.3 0.5 -0.3
v 0.3 0.6 -0.3
v 0.4 0.3 -0.3
v 0.4 0.4 -0.3
v 0.4 0.5 -0.3
v 0.4 0.6 -0.3
v 0.5 0.3 -0.3
v 0.5 0.4 -0.3
v 0.5 0.5 -0.3
v 0.6 0.3 -0.3
v 0.6 0.4 -0.3
v -0.5 0.4 -0.4
v -0.5 0.5 -0.4
v -0.4 0.4 -0.4
v -0.4 0.5 -0.4
v -0.5 0.5 -0.6
v -0.5 0.6 -0.6
v -0.4 0.5 -0.6
v -0.4 0.6 -0.6
v -0.5 0.5 0.5
v -0.5 0.6 0.5
v -0.4 0.5 0.5
v -0.4 0.6 0.5
v -0.5 0.4 0.3
v -0.5 0.5 0.3
v -0.4 0.4 0.3
v -0.4 0.5 0.3
v -0.5 0.3 0.1
v -0.5 0.4 0.1
v -0.4 0.3 0.1
v -0.4 0.4 0.1
v -0.4 0.9 0.1
v -0.4 1 0.1
v -0.4 1.1 0.1
v -0.4 1.2 0.1
v -0.3 0.7 0.1
v -0.3 0.8 0.1
v -0.3 0.9 0.1
v -0.3 1 0.1
v -0.3 1.1 0.1
v -0.3 1.2 0.1
v -0.2 0.7 0.1
v -0.2 0.8 0.1
v 0.2 0.7 0.1
v 0.2 0.8 0.1
v 0.3 0.7 0.1
v 0.3 0.8 0.1
v 0.3 0.9 0.1
v 0.3 1 0.1
v 0.3 1.1 0.1
v 0.3 1.2 0.1
v 0.4 0.9 0.1
v 0.4 1 0.1
v 0.4 1.1 0.1
v 0.4 1.2 0.1
v -0.4 1 0
v -0.4 1.1 0
v -0.3 1 0
v -0.3 1.1 0
v 0.2 0.5 0
v 0.2 0.6 0
v 0.3 0.5 0
v 0.3 0.6 0
v 0.3 1 0
v 0.3 1.1 0
v 0.4 1 0
v 0.4 1.1 0
v -0.5 0.3 -0.1
v -0.5 0.4 -0.1
v -0.4 0.3 -0.1
v -0.4 0.4 -0.1
v -0.4 0.5 -0.1
v -0.4 0.9 -0.1
v -0.4 1 -0.1
v -0.4 1.1 -0.1
v -0.4 1.2 -0.1
v -0.3 0.4 -0.1
v -0.3 0.5 -0.1
v -0.3 0.6 -0.1
v -0.3 0.9 -0.1
v -0.3 1 -0.1
v -0.3 1.1 -0.1
v -0.3 1.2 -0.1
v -0.2 0 -0.1
v -0.2 0.2 -0.1
v -0.2 0.3 -0.1
v -0.2 0.5 -0.1
v -0.2 0.6 -0.1
v -0.1 0 -0.1
v -0.1 0.2 -0.1
v -0.1 0.3 -0.1
v 0.1 0 -0.1
v 0.1 0.2 -0.1
v 0.1 0.3 -0.1
v 0.2 0 -0.1
v 0.2 0.2 -0.1
v 0.2 0.3 -0.1
v 0.3 0.3 -0.1
v 0.3 0.4 -0.1
v 0.3 0.5 -0.1
v 0.3 0.6 -0.1
v 0.3 0.9 -0.1
v 0.3 1 -0.1
v 0.3 1.1 -0.1
v 0.3 1.2 -0.1
v 0.4 0.3 -0.1
v 0.4 0.4 -0.1
v 0.4 0.5 -0.1
v 0.4 0.6 -0.1
v 0.4 0.9 -0.1
v 0.4 1 -0.1
v 0.4 1.1 -0.1
v 0.4 1.2 -0.1
v 0.5 0.4 -0.1
v 0.5 0.5 -0.1
v 0.6 0.6 -0.1
v 0.6 0.7 -0.1
v 0.7 0.6 -0.1
v 0.7 0.7 -0.1
v -0.5 0.2 -0.2
v -0.5 0.3 -0.2
v -0.4 0.2 -0.2
v -0.4 0.3 -0.2
v -0.4 0.8 -0.2
v -0.4 0.9 -0.2
v -0.4 1.2 -0.2
v -0.4 1.3 -0.2
v -0.3 0.6 -0.2
v -0.3 0.7 -0.2
v -0.3 0.8 -0.2
v -0.3 0.9 -0.2
v -0.3 1.2 -0.2
v -0.3 1.3 -0.2
v -0.2 0.4 -0.2
v -0.2 0.6 -0.2
v -0.2 0.7 -0.2
v -0.2 1.3 -0.2
v -0.2 1.4 -0.2
v -0.1 0.4 -0.2
v -0.1 0.6 -0.2
v -0.1 1.3 -0.2
v -0.1 1.4 -0.2
v 0 0.4 -0.2
v 0 0.6 -0.2
v 0.1 0.4 -0.2
v 0.1 0.5 -0.2
v 0.1 0.6 -0.2
v 0.2 0.4 -0.2
v 0.2 0.5 -0.2
v 0.2 1.3 -0.2
v 0.2 1.4 -0.2
v 0.3 0.7 -0.2
v 0.3 0.8 -0.2
v 0.3 0.9 -0.2
v 0.3 1.2 -0.2
v 0.3 1.3 -0.2
v 0.4 0.7 -0.2
v 0.4 0.8 -0.2
v 0.4 0.9 -0.2
v 0.4 1.2 -0.2
v 0.4 1.3 -0.2
v 0.7 0.5 -0.2
v 0.7 0.6 -0.2
v 0.8 0.5 -0.2
v 0.8 0.6 -0.2
v -0.4 0.9 -0.3
v -0.4 1.2 -0.3
v -0.3 0.3 -0.3
v -0.3 0.4 -0.3
v -0.3 0.7 -0.3
v -0.3 0.8 -0.3
v -0.3 0.9 -0.3
v -0.3 1.2 -0.3
v -0.3 1.3 -0.3
v -0.2 0.3 -0.3
v -0.2 0.4 -0.3
v -0.2 0.6 -0.3
v -0.2 0.7 -0.3
v -0.2 0.8 -0.3
v -0.2 0.9 -0.3
v -0.1 0.3 -0.3
v -0.1 0.4 -0.3
v -0.1 0.6 -0.3
v -0.1 0.7 -0.3
v -0.1 0.8 -0.3
v -0.1 0.9 -0.3
v 0 0.3 -0.3
v 0 0.4 -0.3
v 0.1 0.3 -0.3
v 0.1 0.4 -0.3
v 0.1 0.6 -0.3
v 0.1 0.7 -0.3
v 0.1 0.8 -0.3
v 0.1 0.9 -0.3
v 0.2 0.3 -0.3
v 0.2 0.4 -0.3
v 0.2 0.6 -0.3
v 0.2 0.7 -0.3
v 0.2 0.8 -0.3
v 0.2 0.9 -0.3
v 0.3 0.3 -0.3
v 0.3 0.4 -0.3
v 0.3 0.7 -0.3
v 0.3 0.8 -0.3
v 0.3 0.9 -0.3
v 0.3 1.2 -0.3
v 0.3 1.3 -0.3
v 0.4 0.6 -0.3
v 0.4 0.7 -0.3
v 0.4 0.9 -0.3
v 0.4 1.2 -0.3
v 0.5 0.6 -0.3
v 0.5 0.7 -0.3
v 0.6 0.4 -0.3
v 0.6 0.5 -0.3
v 0.7 0.4 -0.3
v 0.7 0.5 -0.3
v -0.5 0.3 -0.4
v -0.5 0.4 -0.4
v -0.4 0.3 -0.4
v -0.4 0.4 -0.4
v -0.3 0.9 -0.4
v -0.3 1.2 -0.4
v -0.2 0.7 -0.4
v -0.2 0.8 -0.4
v -0.2 0.9 -0.4
v -0.2 1.1 -0.4
v -0.1 0.6 -0.4
v -0.1 0.7 -0.4
v -0.1 0.8 -0.4
v 0.1 0.5 -0.4
v 0.1 0.6 -0.4
v 0.1 0.7 -0.4
v 0.1 0.8 -0.4
v 0.2 0.4 -0.4
v 0.2 0.5 -0.4
v 0.2 0.6 -0.4
v 0.2 0.7 -0.4
v 0.2 0.8 -0.4
v 0.2 0.9 -0.4
v 0.2 1.1 -0.4
v 0.3 0.3 -0.4
v 0.3 0.4 -0.4
v 0.3 0.5 -0.4
v 0.3 0.6 -0.4
v 0.3 0.7 -0.4
v 0.3 0.9 -0.4
v 0.3 1.2 -0.4
v 0.4 0.3 -0.4
v 0.4 0.4 -0.4
v 0.4 0.5 -0.4
v 0.4 0.6 -0.4
v 0.5 0.3 -0.4
v 0.5 0.4 -0.4
v 0.5 0.5 -0.4
v 0.6 0.3 -0.4
v 0.6 0.4 -0.4
v -0.2 0.8 -0.5
v -0.2 1.1 -0.5
v -0.1 0.8 -0.5
v -0.1 0.9 -0.5
v 0.1 0.8 -0.5
v 0.1 0.9 -0.5
v 0.2 0.8 -0.5
v 0.2 1.1 -0.5
v -0.5 0.4 -0.6
v -0.5 0.5 -0.6
v -0.4 0.4 -0.6
v -0.4 0.5 -0.6
v -0.5 0.5 -0.7
v -0.5 0.7 -0.7
v -0.4 0.5 -0.7
v -0.4 0.7 -0.7
v -0.2 0 0
v -0.1 0 0
v 0.1 0 0
v 0.2 0 0
v -0.2 0 -0.1
v -0.1 0 -0.1
v 0.1 0 -0.1
v 0.2 0 -0.1
v -0.5 0.2 0.1
v -0.4 0.2 0.1
v -0.5 0.2 -0.2
v -0.4 0.2 -0.2
v -0.5 0.3 0.3
v -0.4 0.3 0.3
v -0.3 0.3 0.2
v -0.2 0.3 0.2
v -0.1 0.3 0.2
v 0 0.3 0.2
v 0.1 0.3 0.2
v 0.2 0.3 0.2
v 0.3 0.3 0.2
v -0.5 0.3 0.1
v -0.4 0.3 0.1
v -0.3 0.3 0.1
v -0.2 0.3 0.1
v 0.2 0.3 0.1
v 0.3 0.3 0.1
v -0.3 0.3 0
v -0.2 0.3 0
v -0.1 0.3 0
v 0.1 0.3 0
v 0.2 0.3 0
v 0.3 0.3 0
v 0.4 0.3 0
v -0.3 0.3 -0.1
v -0.2 0.3 -0.1
v -0.1 0.3 -0.1
v 0.1 0.3 -0.1
v 0.2 0.3 -0.1
v 0.3 0.3 -0.1
v 0.4 0.3 -0.1
v -0.5 0.3 -0.2
v -0.4 0.3 -0.2
v -0.3 0.3 -0.2
v -0.2 0.3 -0.2
v 0.2 0.3 -0.2
v 0.3 0.3 -0.2
v -0.3 0.3 -0.3
v -0.2 0.3 -0.3
v -0.1 0.3 -0.3
v 0 0.3 -0.3
v 0.1 0.3 -0.3
v 0.2 0.3 -0.3
v 0.3 0.3 -0.3
v 0.4 0.3 -0.3
v 0.5 0.3 -0.3
v 0.6 0.3 -0.3
v -0.5 0.3 -0.4
v -0.4 0.3 -0.4
v 0.3 0.3 -0.4
v 0.4 0.3 -0.4
v 0.5 0.3 -0.4
v 0.6 0.3 -0.4
v -0.5 0.4 0.5
v -0.4 0.4 0.5
v -0.5 0.4 0.3
v -0.4 0.4 0.3
v -0.4 0.4 0
v -0.3 0.4 0
v 0.4 0.4 0
v 0.5 0.4 0
v -0.4 0.4 -0.1
v -0.3 0.4 -0.1
v 0.4 0.4 -0.1
v 0.5 0.4 -0.1
v 0.6 0.4 -0.2
v 0.7 0.4 -0.2
v 0.2 0.4 -0.3
v 0.3 0.4 -0.3
v 0.4 0.4 -0.3
v 0.5 0.4 -0.3
v 0.6 0.4 -0.3
v 0.7 0.4 -0.3
v -0.5 0.4 -0.4
v -0.4 0.4 -0.4
v 0.2 0.4 -0.4
v 0.3 0.4 -0.4
v 0.4 0.4 -0.4
v 0.5 0.4 -0.4
v -0.5 0.4 -0.6
v -0.4 0.4 -0.6
v -0.5 0.5 0.6
v -0.4 0.5 0.6
v -0.5 0.5 0.5
v -0.4 0.5 0.5
v -0.3 0.5 0.1
v -0.2 0.5 0.1
v 0.2 0.5 0.1
v 0.3 0.5 0.1
v -0.3 0.5 0
v -0.2 0.5 0
v 0.2 0.5 0
v 0.3 0.5 0
v 0.4 0.5 0
v -0.3 0.5 -0.1
v -0.2 0.5 -0.1
v 0.3 0.5 -0.1
v 0.4 0.5 -0.1
v 0.7 0.5 -0.1
v 0.8 0.5 -0.1
v 0.1 0.5 -0.2
v 0.2 0.5 -0.2
v 0.7 0.5 -0.2
v 0.8 0.5 -0.2
v 0.1 0.5 -0.3
v 0.2 0.5 -0.3
v 0.3 0.5 -0.3
v 0.4 0.5 -0.3
v 0.1 0.5 -0.4
v 0.2 0.5 -0.4
v 0.3 0.5 -0.4
v 0.4 0.5 -0.4
v -0.5 0.5 -0.6
v -0.4 0.5 -0.6
v -0.5 0.5 -0.7
v -0.4 0.5 -0.7
v -0.5 0.6 0.5
v -0.4 0.6 0.5
v -0.2 0.6 0.2
v -0.1 0.6 0.2
v 0.1 0.6 0.2
v 0.2 0.6 0.2
v -0.2 0.6 0.1
v -0.1 0.6 0.1
v 0.1 0.6 0.1
v 0.2 0.6 0.1
v 0.2 0.6 0
v 0.3 0.6 0
v 0.6 0.6 0
v 0.7 0.6 0
v -0.3 0.6 -0.1
v -0.2 0.6 -0.1
v 0.2 0.6 -0.1
v 0.3 0.6 -0.1
v 0.6 0.6 -0.1
v 0.7 0.6 -0.1
v -0.3 0.6 -0.2
v -0.2 0.6 -0.2
v -0.1 0.6 -0.2
v 0 0.6 -0.2
v 0.1 0.6 -0.2
v 0.4 0.6 -0.2
v 0.5 0.6 -0.2
v -0.2 0.6 -0.3
v -0.1 0.6 -0.3
v 0.1 0.6 -0.3
v 0.2 0.6 -0.3
v 0.3 0.6 -0.3
v 0.4 0.6 -0.3
v 0.5 0.6 -0.3
v -0.1 0.6 -0.4
v 0.1 0.6 -0.4
v 0.2 0.6 -0.4
v 0.3 0.6 -0.4
v -0.5 0.6 -0.6
v -0.4 0.6 -0.6
v -0.3 0.7 0.2
v -0.2 0.7 0.2
v 0.2 0.7 0.2
v 0.3 0.7 0.2
v -0.3 0.7 0.1
v -0.2 0.7 0.1
v 0.2 0.7 0.1
v 0.3 0.7 0.1
v 0.3 0.7 -0.1
v 0.4 0.7 -0.1
v -0.3 0.7 -0.2
v -0.2 0.7 -0.2
v 0.3 0.7 -0.2
v 0.4 0.7 -0.2
v -0.3 0.7 -0.3
v -0.2 0.7 -0.3
v -0.1 0.7 -0.3
v 0.1 0.7 -0.3
v 0.2 0.7 -0.3
v -0.2 0.7 -0.4
v -0.1 0.7 -0.4
v 0.1 0.7 -0.4
v 0.2 0.7 -0.4
v -0.4 0.8 0.1
v -0.3 0.8 0.1
v -0.2 0.8 0.1
v 0.2 0.8 0.1
v 0.3 0.8 0.1
v 0.4 0.8 0.1
v -0.3 0.8 0
v -0.2 0.8 0
v 0.2 0.8 0
v 0.3 0.8 0
v 0.3 0.8 -0.1
v 0.4 0.8 -0.1
v -0.4 0.8 -0.2
v -0.3 0.8 -0.2
v -0.2 0.8 -0.4
v -0.1 0.8 -0.4
v 0.1 0.8 -0.4
v 0.2 0.8 -0.4
v -0.2 0.8 -0.5
v -0.1 0.8 -0.5
v 0.1 0.8 -0.5
v 0.2 0.8 -0.5
v -0.4 0.9 0.2
v -0.3 0.9 0.2
v -0.1 0.9 0.2
v 0 0.9 0.2
v 0.3 0.9 0.2
v 0.4 0.9 0.2
v -0.4 0.9 0.1
v -0.3 0.9 0.1
v -0.1 0.9 0.1
v 0 0.9 0.1
v 0.3 0.9 0.1
v 0.4 0.9 0.1
v -0.4 0.9 -0.2
v -0.3 0.9 -0.2
v 0.3 0.9 -0.2
v 0.4 0.9 -0.2
v -0.4 0.9 -0.3
v -0.3 0.9 -0.3
v -0.2 0.9 -0.3
v -0.1 0.9 -0.3
v 0.1 0.9 -0.3
v 0.2 0.9 -0.3
v 0.3 0.9 -0.3
v 0.4 0.9 -0.3
v -0.3 0.9 -0.4
v -0.2 0.9 -0.4
v 0.2 0.9 -0.4
v 0.3 0.9 -0.4
v -0.1 0.9 -0.5
v 0.1 0.9 -0.5
v -0.3 1 0.3
v 0 1 0.3
v 0.3 1 0.3
v -0.3 1 0.2
v -0.2 1 0.2
v -0.1 1 0.2
v 0 1 0.2
v 0.2 1 0.2
v 0.3 1 0.2
v -0.4 1 0.1
v -0.3 1 0.1
v -0.2 1 0.1
v -0.1 1 0.1
v 0 1 0.1
v 0.2 1 0.1
v 0.3 1 0.1
v 0.4 1 0.1
v -0.4 1 0
v -0.3 1 0
v 0.3 1 0
v 0.4 1 0
v -0.4 1 -0.1
v -0.3 1 -0.1
v 0.3 1 -0.1
v 0.4 1 -0.1
v -0.4 1 -0.2
v -0.3 1 -0.2
v 0.3 1 -0.2
v 0.4 1 -0.2
v -0.4 1.1 0
v -0.3 1.1 0
v 0.3 1.1 0
v 0.4 1.1 0
v -0.4 1.1 -0.1
v -0.3 1.1 -0.1
v 0.3 1.1 -0.1
v 0.4 1.1 -0.1
v -0.4 1.2 0.1
v -0.3 1.2 0.1
v 0.3 1.2 0.1
v 0.4 1.2 0.1
v -0.4 1.2 0
v -0.3 1.2 0
v 0.3 1.2 0
v 0.4 1.2 0
v -0.4 1.2 -0.1
v -0.3 1.2 -0.1
v 0.3 1.2 -0.1
v 0.4 1.2 -0.1
v -0.4 1.2 -0.2
v -0.3 1.2 -0.2
v 0.3 1.2 -0.2
v 0.4 1.2 -0.2
v -0.5 0.3 0.1
v -0.4 0.3 0.1
v -0.5 0.3 0
v -0.4 0.3 0
v -0.5 0.3 -0.1
v -0.4 0.3 -0.1
v -0.5 0.3 -0.2
v -0.4 0.3 -0.2
v -0.5 0.4 0.3
v -0.4 0.4 0.3
v -0.3 0.4 0.2
v -0.2 0.4 0.2
v -0.1 0.4 0.2
v 0 0.4 0.2
v 0.1 0.4 0.2
v 0.2 0.4 0.2
v 0.3 0.4 0.2
v -0.5 0.4 0.1
v -0.4 0.4 0.1
v -0.3 0.4 0.1
v -0.2 0.4 0.1
v -0.1 0.4 0.1
v 0 0.4 0.1
v 0.1 0.4 0.1
v 0.2 0.4 0.1
v 0.3 0.4 0.1
v -0.5 0.4 0
v -0.4 0.4 0
v -0.3 0.4 0
v -0.2 0.4 0
v 0.2 0.4 0
v 0.3 0.4 0
v 0.4 0.4 0
v -0.5 0.4 -0.1
v -0.4 0.4 -0.1
v -0.3 0.4 -0.1
v -0.2 0.4 -0.1
v 0.2 0.4 -0.1
v 0.3 0.4 -0.1
v 0.4 0.4 -0.1
v -0.5 0.4 -0.2
v -0.4 0.4 -0.2
v -0.3 0.4 -0.2
v -0.2 0.4 -0.2
v -0.1 0.4 -0.2
v 0 0.4 -0.2
v 0.1 0.4 -0.2
v 0.2 0.4 -0.2
v 0.3 0.4 -0.2
v -0.3 0.4 -0.3
v -0.2 0.4 -0.3
v -0.1 0.4 -0.3
v 0 0.4 -0.3
v 0.1 0.4 -0.3
v 0.2 0.4 -0.3
v 0.3 0.4 -0.3
v 0.4 0.4 -0.3
v 0.5 0.4 -0.3
v 0.6 0.4 -0.3
v -0.5 0.4 -0.4
v -0.4 0.4 -0.4
v 0.3 0.4 -0.4
v 0.4 0.4 -0.4
v 0.5 0.4 -0.4
v 0.6 0.4 -0.4
v -0.5 0.5 0.5
v -0.4 0.5 0.5
v -0.5 0.5 0.3
v -0.4 0.5 0.3
v -0.4 0.5 0
v -0.3 0.5 0
v 0.4 0.5 0
v 0.5 0.5 0
v -0.4 0.5 -0.1
v -0.3 0.5 -0.1
v 0.4 0.5 -0.1
v 0.5 0.5 -0.1
v 0.6 0.5 -0.2
v 0.7 0.5 -0.2
v 0.2 0.5 -0.3
v 0.3 0.5 -0.3
v 0.4 0.5 -0.3
v 0.5 0.5 -0.3
v 0.6 0.5 -0.3
v 0.7 0.5 -0.3
v -0.5 0.5 -0.4
v -0.4 0.5 -0.4
v 0.2 0.5 -0.4
v 0.3 0.5 -0.4
v 0.4 0.5 -0.4
v 0.5 0.5 -0.4
v -0.5 0.5 -0.6
v -0.4 0.5 -0.6
v 0.3 0.6 0
v 0.4 0.6 0
v 0.3 0.6 -0.1
v 0.4 0.6 -0.1
v 0.7 0.6 -0.1
v 0.8 0.6 -0.1
v 0.7 0.6 -0.2
v 0.8 0.6 -0.2
v 0.1 0.6 -0.3
v 0.2 0.6 -0.3
v 0.3 0.6 -0.3
v 0.4 0.6 -0.3
v 0.1 0.6 -0.4
v 0.2 0.6 -0.4
v 0.3 0.6 -0.4
v 0.4 0.6 -0.4
v -0.5 0.7 0.6
v -0.4 0.7 0.6
v -0.5 0.7 0.5
v -0.4 0.7 0.5
v -0.2 0.7 0.2
v -0.1 0.7 0.2
v 0.1 0.7 0.2
v 0.2 0.7 0.2
v -0.3 0.7 0.1
v -0.2 0.7 0.1
v -0.1 0.7 0.1
v 0.1 0.7 0.1
v 0.2 0.7 0.1
v 0.3 0.7 0.1
v -0.3 0.7 0
v -0.2 0.7 0
v 0.2 0.7 0
v 0.3 0.7 0
v 0.6 0.7 0
v 0.7 0.7 0
v 0.6 0.7 -0.1
v 0.7 0.7 -0.1
v 0.4 0.7 -0.2
v 0.5 0.7 -0.2
v -0.1 0.7 -0.3
v 0.1 0.7 -0.3
v 0.2 0.7 -0.3
v 0.3 0.7 -0.3
v 0.4 0.7 -0.3
v 0.5 0.7 -0.3
v -0.1 0.7 -0.4
v 0.1 0.7 -0.4
v 0.2 0.7 -0.4
v 0.3 0.7 -0.4
v -0.5 0.7 -0.6
v -0.4 0.7 -0.6
v -0.5 0.7 -0.7
v -0.4 0.7 -0.7
v -0.4 0.9 0.1
v -0.3 0.9 0.1
v 0.3 0.9 0.1
v 0.4 0.9 0.1
v -0.4 0.9 0
v -0.3 0.9 0
v 0.3 0.9 0
v 0.4 0.9 0
v -0.4 0.9 -0.1
v -0.3 0.9 -0.1
v 0.3 0.9 -0.1
v 0.4 0.9 -0.1
v -0.4 0.9 -0.2
v -0.3 0.9 -0.2
v 0.3 0.9 -0.2
v 0.4 0.9 -0.2
v -0.4 1 0
v -0.3 1 0
v 0.3 1 0
v 0.4 1 0
v -0.4 1 -0.1
v -0.3 1 -0.1
v 0.3 1 -0.1
v 0.4 1 -0.1
v -0.4 1.1 0.1
v -0.3 1.1 0.1
v 0.3 1.1 0.1
v 0.4 1.1 0.1
v -0.4 1.1 0
v -0.3 1.1 0
v 0.3 1.1 0
v 0.4 1.1 0
v -0.4 1.1 -0.1
v -0.3 1.1 -0.1
v 0.3 1.1 -0.1
v 0.4 1.1 -0.1
v -0.4 1.1 -0.2
v -0.3 1.1 -0.2
v 0.3 1.1 -0.2
v 0.4 1.1 -0.2
v -0.2 1.1 -0.4
v 0.2 1.1 -0.4
v -0.2 1.1 -0.5
v 0.2 1.1 -0.5
v -0.3 1.2 0.3
v 0 1.2 0.3
v 0.2 1.2 0.3
v 0.3 1.2 0.3
v -0.4 1.2 0.2
v -0.3 1.2 0.2
v -0.2 1.2 0.2
v 0 1.2 0.2
v 0.2 1.2 0.2
v 0.3 1.2 0.2
v 0.4 1.2 0.2
v -0.4 1.2 0.1
v -0.3 1.2 0.1
v 0.3 1.2 0.1
v 0.4 1.2 0.1
v -0.4 1.2 -0.2
v -0.3 1.2 -0.2
v 0.3 1.2 -0.2
v 0.4 1.2 -0.2
v -0.4 1.2 -0.3
v -0.3 1.2 -0.3
v 0.3 1.2 -0.3
v 0.4 1.2 -0.3
v -0.3 1.2 -0.4
v 0.3 1.2 -0.4
v -0.3 1.3 0.2
v -0.2 1.3 0.2
v 0.3 1.3 0.2
v -0.4 1.3 0.1
v -0.3 1.3 0.1
v -0.2 1.3 0.1
v -0.1 1.3 0.1
v 0.2 1.3 0.1
v 0.3 1.3 0.1
v 0.4 1.3 0.1
v 0.2 1.3 -0.1
v 0.3 1.3 -0.1
v -0.4 1.3 -0.2
v -0.3 1.3 -0.2
v -0.2 1.3 -0.2
v -0.1 1.3 -0.2
v 0.2 1.3 -0.2
v 0.3 1.3 -0.2
v 0.4 1.3 -0.2
v -0.3 1.3 -0.3
v 0.3 1.3 -0.3
v -0.2 1.4 0.1
v -0.1 1.4 0.1
v 0.2 1.4 0.1
v -0.2 1.4 -0.2
v -0.1 1.4 -0.2
v 0.2 1.4 -0.2

# faces
f 4/5/1 2/5/1 1/5/1
f 5/5/1 2/5/1 4/5/1
f 6/5/1 2/5/1 5/5/1
f 7/5/1 2/5/1 6/5/1
f 10/5/1 4/5/1 3/5/1
f 11/5/1 4/5/1 10/5/1
f 12/1/1 6/1/1 5/1/1
f 13/1/1 6/1/1 12/1/1
f 14/5/1 8/5/1 7/5/1
f 15/5/1 8/5/1 14/5/1
f 18/5/1 10/5/1 9/5/1
f 19/5/1 10/5/1 18/5/1
f 20/5/1 16/5/1 15/5/1
f 21/5/1 16/5/1 20/5/1
f 23/5/1 18/5/1 17/5/1
f 24/5/1 22/5/1 21/5/1
f 25/5/1 23/5/1 17/5/1
f 26/12/1 24/12/1 23/12/1
f 26/5/1 23/5/1 25/5/1
f 27/5/1 22/5/1 24/5/1
f 27/12/1 24/12/1 26/12/1
f 28/5/1 22/5/1 27/5/1
f 31/7/1 30/7/1 29/7/1
f 32/7/1 30/7/1 31/7/1
f 36/13/1 34/13/1 33/13/1
f 37/13/1 34/13/1 36/13/1
f 38/13/1 34/13/1 37/13/1
f 39/13/1 34/13/1 38/13/1
f 41/13/1 36/13/1 35/13/1
f 42/13/1 38/13/1 37/13/1
f 43/13/1 38/13/1 42/13/1
f 44/13/1 40/13/1 39/13/1
f 45/13/1 41/13/1 35/13/1
f 45/13/1 42/13/1 41/13/1
f 46/13/1 42/13/1 45/13/1
f 47/13/1 44/13/1 43/13/1
f 48/13/1 40/13/1 44/13/1
f 48/13/1 44/13/1 47/13/1
f 49/13/1 45/13/1 35/13/1
f 50/13/1 45/13/1 49/13/1
f 51/13/1 47/13/1 46/13/1
f 52/13/1 47/13/1 51/13/1
f 53/13/1 40/13/1 48/13/1
f 54/13/1 40/13/1 53/13/1
f 55/13/1 52/13/1 51/13/1
f 55/13/1 53/13/1 52/13/1
f 55/13/1 51/13/1 50/13/1
f 56/13/1 53/13/1 55/13/1
f 63/7/1 58/7/1 57/7/1
f 64/6/1 59/6/1 58/6/1
f 64/7/1 58/7/1 63/7/1
f 65/7/1 60/7/1 59/7/1
f 65/6/1 59/6/1 64/6/1
f 66/6/1 61/6/1 60/6/1
f 66/7/1 60/7/1 65/7/1
f 67/7/1 62/7/1 61/7/1
f 67/6/1 61/6/1 66/6/1
f 68/7/1 62/7/1 67/7/1
f 72/8/1 70/8/1 69/8/1
f 72/1/1 71/1/1 70/1/1
f 73/1/1 71/1/1 72/1/1
f 76/8/1 72/8/1 69/8/1
f 77/7/1 73/7/1 72/7/1
f 77/8/1 72/8/1 76/8/1
f 78/8/1 74/8/1 73/8/1
f 78/7/1 73/7/1 77/7/1
f 79/8/1 74/8/1 78/8/1
f 81/8/1 76/8/1 75/8/1
f 82/8/1 80/8/1 79/8/1
f 82/8/1 79/8/1 78/8/1
f 82/8/1 78/8/1 77/8/1
f 83/8/1 80/8/1 82/8/1
f 84/8/1 80/8/1 83/8/1
f 85/8/1 81/8/1 75/8/1
f 86/8/1 81/8/1 85/8/1
f 89/12/1 84/12/1 83/12/1
f 90/12/1 84/12/1 89/12/1
f 94/8/1 87/8/1 86/8/1
f 95/8/1 87/8/1 94/8/1
f 96/8/1 89/8/1 88/8/1
f 97/8/1 89/8/1 96/8/1
f 99/12/1 96/12/1 95/12/1
f 100/12/1 96/12/1 99/12/1
f 102/11/1 93/11/1 92/11/1
f 103/11/1 93/11/1 102/11/1
f 104/12/1 99/12/1 98/12/1
f 105/12/1 99/12/1 104/12/1
f 106/13/1 101/13/1 100/13/1
f 107/13/1 101/13/1 106/13/1
f 108/13/1 91/13/1 90/13/1
f 109/13/1 91/13/1 108/13/1
f 110/13/1 104/13/1 103/13/1
f 111/13/1 104/13/1 110/13/1
f 112/13/1 108/13/1 107/13/1
f 113/13/1 108/13/1 112/13/1
f 116/4/1 115/4/1 114/4/1
f 117/4/1 115/4/1 116/4/1
f 118/1/1 117/1/1 116/1/1
f 119/1/1 117/1/1 118/1/1
f 124/6/1 121/6/1 120/6/1
f 125/7/1 122/7/1 121/7/1
f 125/6/1 121/6/1 124/6/1
f 126/6/1 123/6/1 122/6/1
f 126/7/1 122/7/1 125/7/1
f 129/6/1 123/6/1 126/6/1
f 130/6/1 123/6/1 129/6/1
f 132/8/1 128/8/1 127/8/1
f 133/8/1 128/8/1 132/8/1
f 135/8/1 131/8/1 130/8/1
f 136/8/1 131/8/1 135/8/1
f 138/2/1 134/2/1 133/2/1
f 139/2/1 134/2/1 138/2/1
f 140/8/1 137/8/1 136/8/1
f 141/8/1 137/8/1 140/8/1
f 143/13/1 142/13/1 141/13/1
f 143/13/1 141/13/1 140/13/1
f 144/13/1 142/13/1 143/13/1
f 145/13/1 142/13/1 144/13/1
f 146/13/1 142/13/1 145/13/1
f 149/13/1 148/13/1 147/13/1
f 150/13/1 148/13/1 149/13/1
f 153/8/1 152/8/1 151/8/1
f 154/8/1 152/8/1 153/8/1
f 157/8/1 156/8/1 155/8/1
f 158/8/1 156/8/1 157/8/1
f 161/4/1 160/4/1 159/4/1
f 162/4/1 160/4/1 161/4/1
f 163/1/1 162/1/1 161/1/1
f 164/1/1 162/1/1 163/1/1
f 170/7/1 166/7/1 165/7/1
f 171/8/1 167/8/1 166/8/1
f 171/7/1 166/7/1 170/7/1
f 172/8/1 167/8/1 171/8/1
f 173/8/1 169/8/1 168/8/1
f 174/8/1 169/8/1 173/8/1
f 177/8/1 176/8/1 175/8/1
f 178/8/1 176/8/1 177/8/1
f 180/13/1 178/13/1 177/13/1
f 180/13/1 179/13/1 178/13/1
f 181/13/1 179/13/1 180/13/1
f 184/8/1 183/8/1 182/8/1
f 185/8/1 183/8/1 184/8/1
f 190/8/1 187/8/1 186/8/1
f 191/8/1 187/8/1 190/8/1
f 192/8/1 189/8/1 188/8/1
f 193/8/1 192/8/1 188/8/1
f 194/8/1 193/8/1 188/8/1
f 195/8/1 193/8/1 194/8/1
f 198/8/1 197/8/1 196/8/1
f 199/8/1 197/8/1 198/8/1
f 204/1/1 201/1/1 200/1/1
f 205/1/1 201/1/1 204/1/1
f 206/8/1 203/8/1 202/8/1
f 207/8/1 203/8/1 206/8/1
f 212/1/1 209/1/1 208/1/1
f 213/1/1 209/1/1 212/1/1
f 214/8/1 211/8/1 210/8/1
f 215/8/1 211/8/1 214/8/1
f 218/8/1 217/8/1 216/8/1
f 219/8/1 217/8/1 218/8/1
f 222/8/1 221/8/1 220/8/1
f 223/8/1 221/8/1 222/8/1
f 226/8/1 225/8/1 224/8/1
f 227/8/1 225/8/1 226/8/1
f 230/8/1 229/8/1 228/8/1
f 231/8/1 229/8/1 230/8/1
f 234/8/1 233/8/1 232/8/1
f 235/8/1 233/8/1 234/8/1
f 236/5/2 237/5/2 239/5/2
f 239/5/2 237/5/2 240/5/2
f 240/5/2 237/5/2 241/5/2
f 241/5/2 237/5/2 242/5/2
f 238/5/2 239/5/2 245/5/2
f 245/5/2 239/5/2 246/5/2
f 240/1/2 241/1/2 247/1/2
f 247/1/2 241/1/2 248/1/2
f 242/5/2 243/5/2 249/5/2
f 249/5/2 243/5/2 250/5/2
f 244/5/2 245/5/2 253/5/2
f 253/5/2 245/5/2 254/5/2
f 250/5/2 251/5/2 255/5/2
f 255/5/2 251/5/2 256/5/2
f 252/5/2 253/5/2 258/5/2
f 256/5/2 257/5/2 259/5/2
f 252/5/2 258/5/2 260/5/2
f 258/12/2 259/12/2 261/12/2
f 260/5/2 258/5/2 261/5/2
f 259/5/2 257/5/2 262/5/2
f 261/12/2 259/12/2 262/12/2
f 262/5/2 257/5/2 263/5/2
f 264/7/2 265/7/2 266/7/2
f 266/7/2 265/7/2 267/7/2
f 268/8/2 269/8/2 270/8/2
f 268/8/2 270/8/2 271/8/2
f 268/8/2 271/8/2 272/8/2
f 272/8/2 271/8/2 273/8/2
f 274/4/2 275/4/2 276/4/2
f 276/4/2 275/4/2 277/4/2
f 276/1/2 277/1/2 278/1/2
f 278/1/2 277/1/2 279/1/2
f 280/8/2 281/8/2 282/8/2
f 282/8/2 281/8/2 283/8/2
f 284/8/2 285/8/2 286/8/2
f 286/8/2 285/8/2 287/8/2
f 286/13/2 287/13/2 289/13/2
f 287/13/2 288/13/2 289/13/2
f 289/13/2 288/13/2 290/13/2
f 291/8/2 292/8/2 293/8/2
f 293/8/2 292/8/2 294/8/2
f 295/8/2 296/8/2 297/8/2
f 297/8/2 296/8/2 298/8/2
f 299/4/2 300/4/2 301/4/2
f 301/4/2 300/4/2 302/4/2
f 301/1/2 302/1/2 303/1/2
f 303/1/2 302/1/2 304/1/2
f 305/7/2 306/7/2 309/7/2
f 306/6/2 307/6/2 310/6/2
f 309/7/2 306/7/2 310/7/2
f 307/7/2 308/7/2 311/7/2
f 310/6/2 307/6/2 311/6/2
f 311/7/2 308/7/2 312/7/2
f 310/7/2 311/7/2 317/7/2
f 311/7/2 312/7/2 317/7/2
f 312/7/2 313/7/2 317/7/2
f 317/7/2 313/7/2 318/7/2
f 313/8/2 314/8/2 319/8/2
f 318/7/2 313/7/2 319/7/2
f 319/8/2 314/8/2 320/8/2
f 315/8/2 316/8/2 321/8/2
f 321/8/2 316/8/2 322/8/2
f 322/1/2 323/1/2 326/1/2
f 326/1/2 323/1/2 327/1/2
f 324/8/2 325/8/2 328/8/2
f 328/8/2 325/8/2 329/8/2
f 328/13/2 329/13/2 331/13/2
f 329/13/2 330/13/2 331/13/2
f 331/13/2 330/13/2 332/13/2
f 332/13/2 330/13/2 333/13/2
f 333/13/2 330/13/2 334/13/2
f 335/12/2 336/12/2 338/12/2
f 336/12/2 337/12/2 338/12/2
f 338/12/2 337/12/2 339/12/2
f 340/6/2 341/6/2 346/6/2
f 341/7/2 342/7/2 347/7/2
f 346/6/2 341/6/2 347/6/2
f 347/7/2 342/7/2 348/7/2
f 343/7/2 344/7/2 349/7/2
f 344/6/2 345/6/2 350/6/2
f 349/7/2 344/7/2 350/7/2
f 350/6/2 345/6/2 351/6/2
f 351/8/2 352/8/2 355/8/2
f 355/8/2 352/8/2 356/8/2
f 353/8/2 354/8/2 357/8/2
f 353/8/2 357/8/2 362/8/2
f 357/7/2 358/7/2 363/7/2
f 362/8/2 357/8/2 363/8/2
f 359/8/2 360/8/2 364/8/2
f 363/7/2 358/7/2 364/7/2
f 358/8/2 359/8/2 364/8/2
f 364/8/2 360/8/2 365/8/2
f 365/8/2 360/8/2 366/8/2
f 366/8/2 360/8/2 367/8/2
f 361/8/2 362/8/2 368/8/2
f 363/8/2 364/8/2 369/8/2
f 369/8/2 364/8/2 370/8/2
f 365/8/2 366/8/2 371/8/2
f 371/8/2 366/8/2 372/8/2
f 361/8/2 368/8/2 373/8/2
f 373/8/2 368/8/2 374/8/2
f 371/12/2 372/12/2 377/12/2
f 377/12/2 372/12/2 378/12/2
f 374/8/2 375/8/2 382/8/2
f 382/8/2 375/8/2 383/8/2
f 376/8/2 377/8/2 384/8/2
f 384/8/2 377/8/2 385/8/2
f 380/10/2 381/10/2 386/10/2
f 386/10/2 381/10/2 387/10/2
f 383/12/2 384/12/2 389/12/2
f 389/12/2 384/12/2 390/12/2
f 386/9/2 387/9/2 392/9/2
f 392/9/2 387/9/2 393/9/2
f 388/12/2 389/12/2 394/12/2
f 394/12/2 389/12/2 395/12/2
f 390/12/2 391/12/2 396/12/2
f 396/12/2 391/12/2 397/12/2
f 378/13/2 379/13/2 398/13/2
f 398/13/2 379/13/2 399/13/2
f 393/12/2 394/12/2 400/12/2
f 400/12/2 394/12/2 401/12/2
f 397/13/2 398/13/2 402/13/2
f 402/13/2 398/13/2 403/13/2
f 404/1/2 405/1/2 408/1/2
f 408/1/2 405/1/2 409/1/2
f 406/8/2 407/8/2 410/8/2
f 410/8/2 407/8/2 411/8/2
f 412/1/2 413/1/2 416/1/2
f 416/1/2 413/1/2 417/1/2
f 414/8/2 415/8/2 418/8/2
f 418/8/2 415/8/2 419/8/2
f 420/8/2 421/8/2 423/8/2
f 423/8/2 421/8/2 424/8/2
f 422/12/2 423/12/2 426/12/2
f 423/12/2 424/12/2 426/12/2
f 426/12/2 424/12/2 427/12/2
f 427/12/2 424/12/2 428/12/2
f 428/12/2 424/12/2 429/12/2
f 425/12/2 426/12/2 431/12/2
f 427/12/2 428/12/2 432/12/2
f 432/12/2 428/12/2 433/12/2
f 429/12/2 430/12/2 434/12/2
f 425/12/2 431/12/2 435/12/2
f 431/12/2 432/12/2 435/12/2
f 435/12/2 432/12/2 436/12/2
f 433/12/2 434/12/2 437/12/2
f 434/12/2 430/12/2 438/12/2
f 437/12/2 434/12/2 438/12/2
f 425/12/2 435/12/2 439/12/2
f 439/12/2 435/12/2 440/12/2
f 436/12/2 437/12/2 441/12/2
f 441/12/2 437/12/2 442/12/2
f 438/12/2 430/12/2 443/12/2
f 443/12/2 430/12/2 444/12/2
f 441/12/2 442/12/2 445/12/2
f 442/12/2 443/12/2 445/12/2
f 440/12/2 441/12/2 445/12/2
f 445/12/2 443/12/2 446/12/2
f 447/1/2 448/1/2 451/1/2
f 451/1/2 448/1/2 452/1/2
f 449/8/2 450/8/2 453/8/2
f 453/8/2 450/8/2 454/8/2
f 455/8/2 456/8/2 457/8/2
f 457/8/2 456/8/2 458/8/2
f 459/8/2 460/8/2 461/8/2
f 461/8/2 460/8/2 462/8/2
f 463/8/2 464/8/2 465/8/2
f 465/8/2 464/8/2 466/8/2
f 467/8/2 468/8/2 469/8/2
f 469/8/2 468/8/2 470/8/2
f 471/8/2 472/8/2 473/8/2
f 473/8/2 472/8/2 474/8/2
f 477/5/3 476/5/3 475/5/3
f 478/5/3 476/5/3 477/5/3
f 481/5/3 480/5/3 479/5/3
f 482/5/3 480/5/3 481/5/3
f 485/5/3 484/5/3 483/5/3
f 486/5/3 484/5/3 485/5/3
f 489/11/3 488/11/3 487/11/3
f 490/11/3 488/11/3 489/11/3
f 491/10/3 490/10/3 489/10/3
f 492/10/3 490/10/3 491/10/3
f 493/10/3 491/10/3 489/10/3
f 494/9/3 492/9/3 491/9/3
f 494/10/3 491/10/3 493/10/3
f 495/9/3 492/9/3 494/9/3
f 501/13/3 497/13/3 496/13/3
f 502/13/3 497/13/3 501/13/3
f 503/13/3 497/13/3 502/13/3
f 505/7/3 499/7/3 498/7/3
f 506/7/3 499/7/3 505/7/3
f 508/8/3 501/8/3 500/8/3
f 508/8/3 502/8/3 501/8/3
f 509/8/3 502/8/3 508/8/3
f 510/13/3 504/13/3 503/13/3
f 511/13/3 504/13/3 510/13/3
f 512/6/3 506/6/3 505/6/3
f 513/6/3 506/6/3 512/6/3
f 514/8/3 508/8/3 507/8/3
f 515/8/3 508/8/3 514/8/3
f 518/7/3 513/7/3 512/7/3
f 519/7/3 513/7/3 518/7/3
f 520/8/3 517/8/3 516/8/3
f 521/8/3 517/8/3 520/8/3
f 522/12/3 511/12/3 510/12/3
f 523/6/3 519/6/3 518/6/3
f 524/6/3 519/6/3 523/6/3
f 527/7/3 524/7/3 523/7/3
f 528/7/3 524/7/3 527/7/3
f 529/8/3 526/8/3 525/8/3
f 530/8/3 526/8/3 529/8/3
f 532/12/3 511/12/3 522/12/3
f 533/6/3 528/6/3 527/6/3
f 534/6/3 528/6/3 533/6/3
f 535/8/3 531/8/3 530/8/3
f 536/8/3 531/8/3 535/8/3
f 537/8/3 531/8/3 536/8/3
f 539/12/3 511/12/3 532/12/3
f 540/12/3 511/12/3 539/12/3
f 541/12/3 538/12/3 537/12/3
f 541/12/3 539/12/3 538/12/3
f 541/12/3 537/12/3 536/12/3
f 542/12/3 539/12/3 541/12/3
f 545/5/3 544/5/3 543/5/3
f 546/5/3 544/5/3 545/5/3
f 553/13/3 548/13/3 547/13/3
f 554/13/3 548/13/3 553/13/3
f 555/13/3 550/13/3 549/13/3
f 556/13/3 550/13/3 555/13/3
f 558/8/3 552/8/3 551/8/3
f 559/8/3 552/8/3 558/8/3
f 560/8/3 552/8/3 559/8/3
f 566/6/3 558/6/3 557/6/3
f 566/6/3 559/6/3 558/6/3
f 567/6/3 559/6/3 566/6/3
f 568/2/3 561/2/3 560/2/3
f 569/14/3 562/14/3 561/14/3
f 569/2/3 561/2/3 568/2/3
f 570/8/3 563/8/3 562/8/3
f 570/14/3 562/14/3 569/14/3
f 571/8/3 563/8/3 570/8/3
f 572/13/3 565/13/3 564/13/3
f 573/13/3 565/13/3 572/13/3
f 574/7/3 567/7/3 566/7/3
f 575/6/3 568/6/3 567/6/3
f 575/7/3 567/7/3 574/7/3
f 576/2/3 569/2/3 568/2/3
f 576/6/3 568/6/3 575/6/3
f 577/1/3 570/1/3 569/1/3
f 577/2/3 569/2/3 576/2/3
f 578/1/3 570/1/3 577/1/3
f 580/6/3 575/6/3 574/6/3
f 580/6/3 576/6/3 575/6/3
f 581/6/3 576/6/3 580/6/3
f 582/6/3 576/6/3 581/6/3
f 583/1/3 578/1/3 577/1/3
f 583/6/3 576/6/3 582/6/3
f 583/1/3 577/1/3 576/1/3
f 584/1/3 578/1/3 583/1/3
f 585/8/3 579/8/3 578/8/3
f 585/1/3 578/1/3 584/1/3
f 586/7/3 581/7/3 580/7/3
f 587/6/3 582/6/3 581/6/3
f 587/7/3 581/7/3 586/7/3
f 588/6/3 582/6/3 587/6/3
f 589/1/3 584/1/3 583/1/3
f 590/14/3 585/14/3 584/14/3
f 590/1/3 584/1/3 589/1/3
f 591/8/3 579/8/3 585/8/3
f 591/14/3 585/14/3 590/14/3
f 592/8/3 579/8/3 591/8/3
f 593/12/3 573/12/3 572/12/3
f 594/12/3 573/12/3 593/12/3
f 595/8/3 588/8/3 587/8/3
f 595/8/3 589/8/3 588/8/3
f 596/8/3 589/8/3 595/8/3
f 601/12/3 598/12/3 597/12/3
f 602/12/3 598/12/3 601/12/3
f 603/12/3 600/12/3 599/12/3
f 604/12/3 600/12/3 603/12/3
f 607/1/3 606/1/3 605/1/3
f 608/1/3 606/1/3 607/1/3
f 614/7/3 609/7/3 608/7/3
f 615/7/3 609/7/3 614/7/3
f 618/13/3 611/13/3 610/13/3
f 619/13/3 611/13/3 618/13/3
f 620/13/3 613/13/3 612/13/3
f 621/13/3 613/13/3 620/13/3
f 625/8/3 617/8/3 616/8/3
f 626/8/3 617/8/3 625/8/3
f 627/4/3 623/4/3 622/4/3
f 628/1/3 624/1/3 623/1/3
f 628/4/3 623/4/3 627/4/3
f 629/1/3 624/1/3 628/1/3
f 633/4/3 631/4/3 630/4/3
f 634/1/3 632/1/3 631/1/3
f 634/4/3 631/4/3 633/4/3
f 635/1/3 632/1/3 634/1/3
f 642/8/3 637/8/3 636/8/3
f 643/8/3 637/8/3 642/8/3
f 648/1/3 639/1/3 638/1/3
f 649/1/3 639/1/3 648/1/3
f 650/1/3 641/1/3 640/1/3
f 651/1/3 641/1/3 650/1/3
f 652/12/3 645/12/3 644/12/3
f 653/12/3 645/12/3 652/12/3
f 654/12/3 647/12/3 646/12/3
f 655/12/3 647/12/3 654/12/3
f 656/1/3 650/1/3 649/1/3
f 657/1/3 650/1/3 656/1/3
f 660/8/3 659/8/3 658/8/3
f 661/8/3 659/8/3 660/8/3
f 664/13/3 663/13/3 662/13/3
f 665/13/3 663/13/3 664/13/3
f 670/8/3 667/8/3 666/8/3
f 671/8/3 667/8/3 670/8/3
f 672/12/3 669/12/3 668/12/3
f 673/12/3 669/12/3 672/12/3
f 676/8/3 675/8/3 674/8/3
f 677/8/3 675/8/3 676/8/3
f 680/5/3 679/5/3 678/5/3
f 681/5/3 679/5/3 680/5/3
f 686/13/3 683/13/3 682/13/3
f 687/13/3 683/13/3 686/13/3
f 688/13/3 685/13/3 684/13/3
f 689/13/3 685/13/3 688/13/3
f 696/12/3 691/12/3 690/12/3
f 697/12/3 691/12/3 696/12/3
f 698/12/3 693/12/3 692/12/3
f 699/12/3 693/12/3 698/12/3
f 700/8/3 695/8/3 694/8/3
f 701/8/3 695/8/3 700/8/3
f 704/8/3 703/8/3 702/8/3
f 705/8/3 703/8/3 704/8/3
f 709/8/3 707/8/3 706/8/3
f 710/8/3 707/8/3 709/8/3
f 712/8/3 709/8/3 708/8/3
f 713/8/3 709/8/3 712/8/3
f 714/8/3 711/8/3 710/8/3
f 715/8/3 711/8/3 714/8/3
f 717/8/3 714/8/3 713/8/3
f 718/8/3 714/8/3 717/8/3
f 719/8/3 717/8/3 716/8/3
f 720/8/3 717/8/3 719/8/3
f 723/5/3 722/5/3 721/5/3
f 724/5/3 722/5/3 723/5/3
f 727/5/3 726/5/3 725/5/3
f 728/5/3 726/5/3 727/5/3
f 729/5/4 730/5/4 731/5/4
f 731/5/4 730/5/4 732/5/4
f 733/5/4 734/5/4 735/5/4
f 735/5/4 734/5/4 736/5/4
f 737/5/4 738/5/4 739/5/4
f 739/5/4 738/5/4 740/5/4
f 741/13/4 742/13/4 747/13/4
f 747/13/4 742/13/4 748/13/4
f 743/13/4 744/13/4 749/13/4
f 749/13/4 744/13/4 750/13/4
f 745/8/4 746/8/4 751/8/4
f 751/8/4 746/8/4 752/8/4
f 753/8/4 754/8/4 755/8/4
f 755/8/4 754/8/4 756/8/4
f 757/12/4 758/12/4 761/12/4
f 761/12/4 758/12/4 762/12/4
f 759/12/4 760/12/4 763/12/4
f 763/12/4 760/12/4 764/12/4
f 765/13/4 766/13/4 767/13/4
f 767/13/4 766/13/4 768/13/4
f 769/8/4 770/8/4 771/8/4
f 771/8/4 770/8/4 772/8/4
f 773/12/4 774/12/4 775/12/4
f 775/12/4 774/12/4 776/12/4
f 777/1/4 778/1/4 779/1/4
f 779/1/4 778/1/4 780/1/4
f 780/7/4 781/7/4 786/7/4
f 786/7/4 781/7/4 787/7/4
f 782/13/4 783/13/4 789/13/4
f 789/13/4 783/13/4 790/13/4
f 784/13/4 785/13/4 791/13/4
f 791/13/4 785/13/4 792/13/4
f 787/1/4 788/1/4 796/1/4
f 796/1/4 788/1/4 797/1/4
f 793/4/4 794/4/4 798/4/4
f 794/1/4 795/1/4 799/1/4
f 798/4/4 794/4/4 799/4/4
f 799/1/4 795/1/4 800/1/4
f 801/4/4 802/4/4 804/4/4
f 802/1/4 803/1/4 805/1/4
f 804/4/4 802/4/4 805/4/4
f 805/1/4 803/1/4 806/1/4
f 807/1/4 808/1/4 815/1/4
f 815/1/4 808/1/4 816/1/4
f 809/1/4 810/1/4 817/1/4
f 817/1/4 810/1/4 818/1/4
f 811/12/4 812/12/4 819/12/4
f 819/12/4 812/12/4 820/12/4
f 813/12/4 814/12/4 821/12/4
f 821/12/4 814/12/4 822/12/4
f 816/1/4 817/1/4 823/1/4
f 823/1/4 817/1/4 824/1/4
f 825/8/4 826/8/4 827/8/4
f 827/8/4 826/8/4 828/8/4
f 829/5/4 830/5/4 831/5/4
f 831/5/4 830/5/4 832/5/4
f 833/13/4 834/13/4 839/13/4
f 839/13/4 834/13/4 840/13/4
f 835/13/4 836/13/4 841/13/4
f 841/13/4 836/13/4 842/13/4
f 837/8/4 838/8/4 844/8/4
f 844/8/4 838/8/4 845/8/4
f 843/6/4 844/6/4 848/6/4
f 848/6/4 844/6/4 849/6/4
f 846/13/4 847/13/4 850/13/4
f 850/13/4 847/13/4 851/13/4
f 848/7/4 849/7/4 852/7/4
f 852/7/4 849/7/4 853/7/4
f 852/6/4 853/6/4 854/6/4
f 854/6/4 853/6/4 855/6/4
f 855/6/4 853/6/4 856/6/4
f 854/7/4 855/7/4 857/7/4
f 857/7/4 855/7/4 858/7/4
f 850/12/4 851/12/4 859/12/4
f 859/12/4 851/12/4 860/12/4
f 861/8/4 862/8/4 866/8/4
f 862/12/4 863/12/4 867/12/4
f 866/8/4 862/8/4 867/8/4
f 867/12/4 863/12/4 868/12/4
f 864/12/4 865/12/4 869/12/4
f 869/12/4 865/12/4 870/12/4
f 871/8/4 872/8/4 873/8/4
f 873/8/4 872/8/4 874/8/4
f 875/13/4 876/13/4 881/13/4
f 881/13/4 876/13/4 882/13/4
f 877/7/4 878/7/4 884/7/4
f 884/7/4 878/7/4 885/7/4
f 879/8/4 880/8/4 887/8/4
f 880/12/4 881/12/4 888/12/4
f 887/8/4 880/8/4 888/8/4
f 888/12/4 881/12/4 889/12/4
f 884/6/4 885/6/4 890/6/4
f 890/6/4 885/6/4 891/6/4
f 886/8/4 887/8/4 892/8/4
f 892/8/4 887/8/4 893/8/4
f 890/7/4 891/7/4 896/7/4
f 896/7/4 891/7/4 897/7/4
f 896/6/4 897/6/4 898/6/4
f 898/6/4 897/6/4 899/6/4
f 893/8/4 894/8/4 901/8/4
f 894/13/4 895/13/4 902/13/4
f 901/8/4 894/8/4 902/8/4
f 902/13/4 895/13/4 903/13/4
f 898/7/4 899/7/4 904/7/4
f 904/7/4 899/7/4 905/7/4
f 900/8/4 901/8/4 906/8/4
f 906/8/4 901/8/4 907/8/4
f 904/6/4 905/6/4 910/6/4
f 910/6/4 905/6/4 911/6/4
f 907/8/4 908/8/4 912/8/4
f 908/12/4 909/12/4 913/12/4
f 912/8/4 908/8/4 913/8/4
f 913/12/4 909/12/4 914/12/4
f 882/13/4 883/13/4 915/13/4
f 915/13/4 883/13/4 916/13/4
f 914/12/4 915/12/4 919/12/4
f 919/12/4 915/12/4 920/12/4
f 917/8/4 918/8/4 921/8/4
f 921/8/4 918/8/4 922/8/4
f 923/8/4 924/8/4 925/8/4
f 925/8/4 924/8/4 926/8/4
f 927/5/4 928/5/4 929/5/4
f 929/5/4 928/5/4 930/5/4
f 931/13/4 932/13/4 935/13/4
f 935/13/4 932/13/4 936/13/4
f 933/8/4 934/8/4 938/8/4
f 938/8/4 934/8/4 939/8/4
f 937/8/4 938/8/4 941/8/4
f 941/8/4 938/8/4 942/8/4
f 940/8/4 941/8/4 945/8/4
f 945/8/4 941/8/4 946/8/4
f 942/8/4 943/8/4 947/8/4
f 947/8/4 943/8/4 948/8/4
f 936/13/4 932/13/4 950/13/4
f 944/8/4 945/8/4 952/8/4
f 952/8/4 945/8/4 953/8/4
f 946/8/4 947/8/4 954/8/4
f 954/8/4 947/8/4 955/8/4
f 949/13/4 950/13/4 956/13/4
f 950/13/4 932/13/4 957/13/4
f 956/13/4 950/13/4 957/13/4
f 951/8/4 952/8/4 958/8/4
f 958/8/4 952/8/4 959/8/4
f 953/8/4 954/8/4 960/8/4
f 960/8/4 954/8/4 961/8/4
f 959/8/4 960/8/4 963/8/4
f 963/8/4 960/8/4 964/8/4
f 962/8/4 963/8/4 965/8/4
f 965/8/4 963/8/4 966/8/4
f 967/13/4 968/13/4 969/13/4
f 969/13/4 968/13/4 970/13/4
f 970/13/4 968/13/4 972/13/4
f 971/13/4 972/13/4 973/13/4
f 972/13/4 968/13/4 974/13/4
f 973/13/4 972/13/4 974/13/4
f 975/5/4 976/5/4 977/5/4
f 977/5/4 976/5/4 978/5/4
f 979/5/4 980/5/4 981/5/4
f 981/5/4 980/5/4 982/5/4
f 987/4/5 984/4/5 983/4/5
f 988/4/5 984/4/5 987/4/5
f 989/4/5 986/4/5 985/4/5
f 990/4/5 986/4/5 989/4/5
f 993/5/5 992/5/5 991/5/5
f 994/5/5 992/5/5 993/5/5
f 1004/5/5 996/5/5 995/5/5
f 1005/5/5 996/5/5 1004/5/5
f 1006/7/5 998/7/5 997/7/5
f 1007/6/5 999/6/5 998/6/5
f 1007/7/5 998/7/5 1006/7/5
f 1008/6/5 1003/6/5 1002/6/5
f 1008/7/5 1002/7/5 1001/7/5
f 1009/6/5 1003/6/5 1008/6/5
f 1010/6/5 1007/6/5 1006/6/5
f 1011/6/5 999/6/5 1007/6/5
f 1011/6/5 1007/6/5 1010/6/5
f 1012/7/5 1000/7/5 999/7/5
f 1012/6/5 999/6/5 1011/6/5
f 1013/6/5 1001/6/5 1000/6/5
f 1013/7/5 1009/7/5 1008/7/5
f 1013/7/5 1008/7/5 1001/7/5
f 1014/7/5 1009/7/5 1013/7/5
f 1015/7/5 1009/7/5 1014/7/5
f 1017/7/5 1011/7/5 1010/7/5
f 1018/7/5 1011/7/5 1017/7/5
f 1019/7/5 1000/7/5 1012/7/5
f 1020/6/5 1013/6/5 1000/6/5
f 1021/6/5 1015/6/5 1014/6/5
f 1022/1/5 1016/1/5 1015/1/5
f 1022/6/5 1015/6/5 1021/6/5
f 1023/1/5 1016/1/5 1022/1/5
f 1026/6/5 1018/6/5 1017/6/5
f 1026/6/5 1019/6/5 1018/6/5
f 1027/6/5 1019/6/5 1026/6/5
f 1028/7/5 1021/7/5 1020/7/5
f 1028/7/5 1022/7/5 1021/7/5
f 1029/7/5 1022/7/5 1028/7/5
f 1030/7/5 1027/7/5 1026/7/5
f 1031/6/5 1019/6/5 1027/6/5
f 1031/7/5 1027/7/5 1030/7/5
f 1032/7/5 1000/7/5 1019/7/5
f 1032/6/5 1019/6/5 1031/6/5
f 1033/6/5 1020/6/5 1000/6/5
f 1033/7/5 1000/7/5 1032/7/5
f 1034/7/5 1028/7/5 1020/7/5
f 1034/6/5 1020/6/5 1033/6/5
f 1035/6/5 1029/6/5 1028/6/5
f 1035/7/5 1028/7/5 1034/7/5
f 1036/6/5 1029/6/5 1035/6/5
f 1040/5/5 1025/5/5 1024/5/5
f 1041/5/5 1025/5/5 1040/5/5
f 1042/8/5 1037/8/5 1036/8/5
f 1043/8/5 1037/8/5 1042/8/5
f 1044/8/5 1039/8/5 1038/8/5
f 1045/8/5 1039/8/5 1044/8/5
f 1048/5/5 1047/5/5 1046/5/5
f 1049/5/5 1047/5/5 1048/5/5
f 1054/7/5 1051/7/5 1050/7/5
f 1055/7/5 1051/7/5 1054/7/5
f 1056/1/5 1053/1/5 1052/1/5
f 1057/1/5 1053/1/5 1056/1/5
f 1064/8/5 1059/8/5 1058/8/5
f 1065/8/5 1059/8/5 1064/8/5
f 1068/8/5 1061/8/5 1060/8/5
f 1069/8/5 1061/8/5 1068/8/5
f 1070/8/5 1063/8/5 1062/8/5
f 1071/8/5 1063/8/5 1070/8/5
f 1072/5/5 1067/5/5 1066/5/5
f 1073/5/5 1067/5/5 1072/5/5
f 1076/5/5 1075/5/5 1074/5/5
f 1077/5/5 1075/5/5 1076/5/5
f 1082/8/5 1079/8/5 1078/8/5
f 1083/8/5 1079/8/5 1082/8/5
f 1084/8/5 1081/8/5 1080/8/5
f 1085/8/5 1081/8/5 1084/8/5
f 1087/1/5 1083/1/5 1082/1/5
f 1088/1/5 1083/1/5 1087/1/5
f 1089/1/5 1086/1/5 1085/1/5
f 1090/1/5 1086/1/5 1089/1/5
f 1095/8/5 1092/8/5 1091/8/5
f 1096/8/5 1092/8/5 1095/8/5
f 1097/7/5 1094/7/5 1093/7/5
f 1098/7/5 1094/7/5 1097/7/5
f 1101/8/5 1098/8/5 1097/8/5
f 1102/8/5 1098/8/5 1101/8/5
f 1103/8/5 1100/8/5 1099/8/5
f 1104/8/5 1100/8/5 1103/8/5
f 1107/5/5 1106/5/5 1105/5/5
f 1108/5/5 1106/5/5 1107/5/5
f 1115/8/5 1112/8/5 1111/8/5
f 1116/8/5 1112/8/5 1115/8/5
f 1117/8/5 1114/8/5 1113/8/5
f 1118/8/5 1114/8/5 1117/8/5
f 1125/7/5 1120/7/5 1119/7/5
f 1126/7/5 1120/7/5 1125/7/5
f 1127/8/5 1122/8/5 1121/8/5
f 1128/8/5 1122/8/5 1127/8/5
f 1129/8/5 1124/8/5 1123/8/5
f 1130/8/5 1124/8/5 1129/8/5
f 1136/8/5 1131/8/5 1130/8/5
f 1136/8/5 1133/8/5 1132/8/5
f 1136/8/5 1132/8/5 1131/8/5
f 1137/8/5 1133/8/5 1136/8/5
f 1138/8/5 1133/8/5 1137/8/5
f 1139/8/5 1126/8/5 1125/8/5
f 1140/8/5 1126/8/5 1139/8/5
f 1141/8/5 1135/8/5 1134/8/5
f 1142/8/5 1135/8/5 1141/8/5
f 1143/8/5 1138/8/5 1137/8/5
f 1144/8/5 1138/8/5 1143/8/5
f 1145/8/5 1140/8/5 1139/8/5
f 1146/8/5 1140/8/5 1145/8/5
f 1147/12/5 1110/12/5 1109/12/5
f 1148/12/5 1110/12/5 1147/12/5
f 1153/8/5 1150/8/5 1149/8/5
f 1154/8/5 1150/8/5 1153/8/5
f 1155/8/5 1152/8/5 1151/8/5
f 1156/8/5 1152/8/5 1155/8/5
f 1161/8/5 1158/8/5 1157/8/5
f 1162/8/5 1158/8/5 1161/8/5
f 1163/8/5 1160/8/5 1159/8/5
f 1164/8/5 1160/8/5 1163/8/5
f 1168/8/5 1165/8/5 1164/8/5
f 1169/8/5 1165/8/5 1168/8/5
f 1170/8/5 1167/8/5 1166/8/5
f 1171/8/5 1167/8/5 1170/8/5
f 1178/13/5 1173/13/5 1172/13/5
f 1178/8/5 1174/8/5 1173/8/5
f 1179/8/5 1174/8/5 1178/8/5
f 1180/8/5 1176/8/5 1175/8/5
f 1181/12/5 1177/12/5 1176/12/5
f 1181/8/5 1176/8/5 1180/8/5
f 1182/12/5 1177/12/5 1181/12/5
f 1183/12/5 1177/12/5 1182/12/5
f 1184/13/5 1178/13/5 1172/13/5
f 1185/13/5 1178/13/5 1184/13/5
f 1190/13/5 1187/13/5 1186/13/5
f 1191/13/5 1187/13/5 1190/13/5
f 1192/13/5 1189/13/5 1188/13/5
f 1193/13/5 1189/13/5 1192/13/5
f 1200/13/5 1195/13/5 1194/13/5
f 1201/13/5 1195/13/5 1200/13/5
f 1202/8/5 1197/8/5 1196/8/5
f 1203/8/5 1197/8/5 1202/8/5
f 1204/12/5 1199/12/5 1198/12/5
f 1205/12/5 1199/12/5 1204/12/5
f 1210/13/5 1207/13/5 1206/13/5
f 1211/13/5 1207/13/5 1210/13/5
f 1216/12/5 1209/12/5 1208/12/5
f 1217/12/5 1209/12/5 1216/12/5
f 1218/13/5 1212/13/5 1211/13/5
f 1219/13/5 1212/13/5 1218/13/5
f 1220/13/5 1216/13/5 1215/13/5
f 1221/13/5 1216/13/5 1220/13/5
f 1222/13/5 1214/13/5 1213/13/5
f 1223/13/5 1214/13/5 1222/13/5
f 1227/11/5 1225/11/5 1224/11/5
f 1228/11/5 1225/11/5 1227/11/5
f 1229/11/5 1225/11/5 1228/11/5
f 1230/10/5 1226/10/5 1225/10/5
f 1230/11/5 1225/11/5 1229/11/5
f 1231/10/5 1226/10/5 1230/10/5
f 1232/10/5 1226/10/5 1231/10/5
f 1235/12/5 1229/12/5 1228/12/5
f 1236/12/5 1229/12/5 1235/12/5
f 1237/12/5 1231/12/5 1230/12/5
f 1238/12/5 1231/12/5 1237/12/5
f 1241/13/5 1234/13/5 1233/13/5
f 1242/13/5 1234/13/5 1241/13/5
f 1243/12/5 1240/12/5 1239/12/5
f 1244/12/5 1240/12/5 1243/12/5
f 1249/13/5 1246/13/5 1245/13/5
f 1250/13/5 1246/13/5 1249/13/5
f 1251/12/5 1248/12/5 1247/12/5
f 1252/12/5 1248/12/5 1251/12/5
f 1257/13/5 1254/13/5 1253/13/5
f 1258/13/5 1254/13/5 1257/13/5
f 1259/12/5 1256/12/5 1255/12/5
f 1260/12/5 1256/12/5 1259/12/5
f 1265/13/5 1262/13/5 1261/13/5
f 1266/13/5 1262/13/5 1265/13/5
f 1267/12/5 1264/12/5 1263/12/5
f 1268/12/5 1264/12/5 1267/12/5
f 1273/13/5 1270/13/5 1269/13/5
f 1274/13/5 1270/13/5 1273/13/5
f 1275/12/5 1272/12/5 1271/12/5
f 1276/12/5 1272/12/5 1275/12/5
f 1277/5/6 1278/5/6 1279/5/6
f 1279/5/6 1278/5/6 1280/5/6
f 1281/5/6 1282/5/6 1283/5/6
f 1283/5/6 1282/5/6 1284/5/6
f 1285/5/6 1286/5/6 1294/5/6
f 1294/5/6 1286/5/6 1295/5/6
f 1287/7/6 1288/7/6 1296/7/6
f 1288/6/6 1289/6/6 1297/6/6
f 1296/7/6 1288/7/6 1297/7/6
f 1289/7/6 1290/7/6 1298/7/6
f 1297/6/6 1289/6/6 1298/6/6
f 1290/6/6 1291/6/6 1299/6/6
f 1298/7/6 1290/7/6 1299/7/6
f 1291/7/6 1292/7/6 1300/7/6
f 1299/6/6 1291/6/6 1300/6/6
f 1292/6/6 1293/6/6 1301/6/6
f 1300/7/6 1292/7/6 1301/7/6
f 1301/6/6 1293/6/6 1302/6/6
f 1296/6/6 1297/6/6 1305/6/6
f 1305/6/6 1297/6/6 1306/6/6
f 1301/7/6 1302/7/6 1307/7/6
f 1307/7/6 1302/7/6 1308/7/6
f 1303/1/6 1304/1/6 1310/1/6
f 1310/1/6 1304/1/6 1311/1/6
f 1305/7/6 1306/7/6 1312/7/6
f 1312/7/6 1306/7/6 1313/7/6
f 1307/6/6 1308/6/6 1314/6/6
f 1308/1/6 1309/1/6 1315/1/6
f 1314/6/6 1308/6/6 1315/6/6
f 1315/1/6 1309/1/6 1316/1/6
f 1312/6/6 1313/6/6 1319/6/6
f 1319/6/6 1313/6/6 1320/6/6
f 1314/7/6 1315/7/6 1324/7/6
f 1324/7/6 1315/7/6 1325/7/6
f 1319/7/6 1320/7/6 1326/7/6
f 1320/6/6 1321/6/6 1327/6/6
f 1326/7/6 1320/7/6 1327/7/6
f 1321/7/6 1322/7/6 1328/7/6
f 1327/6/6 1321/6/6 1328/6/6
f 1322/6/6 1323/6/6 1329/6/6
f 1328/7/6 1322/7/6 1329/7/6
f 1323/7/6 1324/7/6 1330/7/6
f 1329/6/6 1323/6/6 1330/6/6
f 1324/6/6 1325/6/6 1331/6/6
f 1330/7/6 1324/7/6 1331/7/6
f 1331/6/6 1325/6/6 1332/6/6
f 1317/5/6 1318/5/6 1336/5/6
f 1336/5/6 1318/5/6 1337/5/6
f 1332/8/6 1333/8/6 1338/8/6
f 1338/8/6 1333/8/6 1339/8/6
f 1334/8/6 1335/8/6 1340/8/6
f 1340/8/6 1335/8/6 1341/8/6
f 1342/5/6 1343/5/6 1344/5/6
f 1344/5/6 1343/5/6 1345/5/6
f 1346/7/6 1347/7/6 1350/7/6
f 1350/7/6 1347/7/6 1351/7/6
f 1348/1/6 1349/1/6 1352/1/6
f 1352/1/6 1349/1/6 1353/1/6
f 1354/8/6 1355/8/6 1360/8/6
f 1360/8/6 1355/8/6 1361/8/6
f 1356/8/6 1357/8/6 1364/8/6
f 1364/8/6 1357/8/6 1365/8/6
f 1358/8/6 1359/8/6 1366/8/6
f 1366/8/6 1359/8/6 1367/8/6
f 1362/5/6 1363/5/6 1368/5/6
f 1368/5/6 1363/5/6 1369/5/6
f 1370/1/6 1371/1/6 1372/1/6
f 1372/1/6 1371/1/6 1373/1/6
f 1374/8/6 1375/8/6 1376/8/6
f 1376/8/6 1375/8/6 1377/8/6
f 1378/8/6 1379/8/6 1382/8/6
f 1382/8/6 1379/8/6 1383/8/6
f 1380/8/6 1381/8/6 1384/8/6
f 1384/8/6 1381/8/6 1385/8/6
f 1386/5/6 1387/5/6 1388/5/6
f 1388/5/6 1387/5/6 1389/5/6
f 1390/8/6 1391/8/6 1395/8/6
f 1395/8/6 1391/8/6 1396/8/6
f 1392/8/6 1393/8/6 1397/8/6
f 1397/8/6 1393/8/6 1398/8/6
f 1394/8/6 1395/8/6 1400/8/6
f 1400/8/6 1395/8/6 1401/8/6
f 1398/8/6 1399/8/6 1402/8/6
f 1402/8/6 1399/8/6 1403/8/6
f 1404/8/6 1405/8/6 1406/8/6
f 1406/8/6 1405/8/6 1407/8/6
f 1408/8/6 1409/8/6 1414/8/6
f 1414/8/6 1409/8/6 1415/8/6
f 1410/8/6 1411/8/6 1416/8/6
f 1416/8/6 1411/8/6 1417/8/6
f 1412/8/6 1413/8/6 1418/8/6
f 1418/8/6 1413/8/6 1419/8/6
f 1388/12/6 1389/12/6 1420/12/6
f 1420/12/6 1389/12/6 1421/12/6
f 1420/5/6 1421/5/6 1422/5/6
f 1422/5/6 1421/5/6 1423/5/6
f 1424/13/6 1425/13/6 1428/13/6
f 1428/13/6 1425/13/6 1429/13/6
f 1426/12/6 1427/12/6 1430/12/6
f 1430/12/6 1427/12/6 1431/12/6
f 1432/13/6 1433/13/6 1436/13/6
f 1436/13/6 1433/13/6 1437/13/6
f 1434/12/6 1435/12/6 1438/12/6
f 1438/12/6 1435/12/6 1439/12/6
f 1440/13/6 1441/13/6 1444/13/6
f 1444/13/6 1441/13/6 1445/13/6
f 1442/12/6 1443/12/6 1446/12/6
f 1446/12/6 1443/12/6 1447/12/6
f 1448/13/6 1449/13/6 1452/13/6
f 1452/13/6 1449/13/6 1453/13/6
f 1450/12/6 1451/12/6 1454/12/6
f 1454/12/6 1451/12/6 1455/12/6
f 1456/13/6 1457/13/6 1460/13/6
f 1460/13/6 1457/13/6 1461/13/6
f 1458/12/6 1459/12/6 1462/12/6
f 1462/12/6 1459/12/6 1463/12/6
f 1464/13/6 1465/13/6 1466/13/6
f 1466/13/6 1465/13/6 1467/13/6
f 1468/11/6 1469/11/6 1473/11/6
f 1473/11/6 1469/11/6 1474/11/6
f 1469/10/6 1470/10/6 1475/10/6
f 1474/11/6 1469/11/6 1475/11/6
f 1470/9/6 1471/9/6 1476/9/6
f 1475/10/6 1470/10/6 1476/10/6
f 1476/9/6 1471/9/6 1477/9/6
f 1472/13/6 1473/13/6 1479/13/6
f 1479/13/6 1473/13/6 1480/13/6
f 1477/12/6 1478/12/6 1481/12/6
f 1481/12/6 1478/12/6 1482/12/6
f 1483/13/6 1484/13/6 1487/13/6
f 1487/13/6 1484/13/6 1488/13/6
f 1485/12/6 1486/12/6 1489/12/6
f 1489/12/6 1486/12/6 1490/12/6
f 1488/13/6 1489/13/6 1491/13/6
f 1491/13/6 1489/13/6 1492/13/6
f 1493/13/6 1494/13/6 1497/13/6
f 1494/12/6 1495/12/6 1498/12/6
f 1497/13/6 1494/13/6 1498/13/6
f 1498/12/6 1495/12/6 1499/12/6
f 1499/12/6 1495/12/6 1500/12/6
f 1500/12/6 1495/12/6 1501/12/6
f 1501/12/6 1502/12/6 1503/12/6
f 1500/12/6 1501/12/6 1503/12/6
f 1503/12/6 1502/12/6 1504/12/6
f 1496/13/6 1497/13/6 1505/13/6
f 1497/13/6 1498/13/6 1505/13/6
f 1505/13/6 1498/13/6 1506/13/6
f 1506/13/6 1498/13/6 1507/13/6
f 1503/13/6 1504/13/6 1509/13/6
f 1504/12/6 1502/12/6 1510/12/6
f 1509/13/6 1504/13/6 1510/13/6
f 1510/12/6 1502/12/6 1511/12/6
f 1508/13/6 1509/13/6 1512/13/6
f 1507/13/6 1508/13/6 1512/13/6
f 1509/13/6 1510/13/6 1512/13/6
f 1506/13/6 1507/13/6 1512/13/6
f 1512/13/6 1510/13/6 1513/13/6
f 1514/13/6 1515/13/6 1517/13/6
f 1515/12/6 1516/12/6 1518/12/6
f 1517/13/6 1515/13/6 1518/13/6
f 1518/12/6 1516/12/6 1519/12/6
